<?xml version="1.0" encoding="UTF-8" standalone="no"?>
<!-- Created with Inkscape (http://www.inkscape.org/) -->

<svg
   xmlns:dc="http://purl.org/dc/elements/1.1/"
   xmlns:cc="http://creativecommons.org/ns#"
   xmlns:rdf="http://www.w3.org/1999/02/22-rdf-syntax-ns#"
   xmlns:svg="http://www.w3.org/2000/svg"
   xmlns="http://www.w3.org/2000/svg"
   xmlns:sodipodi="http://sodipodi.sourceforge.net/DTD/sodipodi-0.dtd"
   xmlns:inkscape="http://www.inkscape.org/namespaces/inkscape"
   width="744.09448819"
   height="1052.3622047"
   id="svg3944"
   version="1.1"
   inkscape:version="0.48.4 r9939"
   sodipodi:docname="New document 7">
  <defs
     id="defs3946" />
  <sodipodi:namedview
     id="base"
     pagecolor="#ffffff"
     bordercolor="#666666"
     borderopacity="1.0"
     inkscape:pageopacity="0.0"
     inkscape:pageshadow="2"
     inkscape:zoom="1.0458984"
     inkscape:cx="375"
     inkscape:cy="520"
     inkscape:document-units="px"
     inkscape:current-layer="layer1"
     showgrid="false"
     inkscape:window-width="1535"
     inkscape:window-height="876"
     inkscape:window-x="65"
     inkscape:window-y="24"
     inkscape:window-maximized="1" />
  <metadata
     id="metadata3949">
    <rdf:RDF>
      <cc:Work
         rdf:about="">
        <dc:format>image/svg+xml</dc:format>
        <dc:type
           rdf:resource="http://purl.org/dc/dcmitype/StillImage" />
        <dc:title></dc:title>
      </cc:Work>
    </rdf:RDF>
  </metadata>
  <g
     inkscape:label="Layer 1"
     inkscape:groupmode="layer"
     id="layer1">
    <path
       style="fill:#ca262c"
       d="m 387.48852,705.52822 c -3.92986,0.55685 -8.45476,-0.48435 -8.07167,-1.85732 0.27097,-0.97108 0.98917,-1.30132 2.30943,-1.06186 1.0539,0.19115 2.18281,-0.13598 2.50868,-0.72698 0.32589,-0.591 0.82654,-0.6594 1.11255,-0.15199 0.28602,0.50739 0.91537,0.69969 1.39853,0.42738 1.68689,-0.9509 -3.2163,-2.73445 -6.09474,-2.21699 -2.30266,0.41394 -2.87013,0.89994 -2.87117,2.45893 -0.001,1.61187 -0.71442,1.41239 -4.18584,-1.17056 -4.3437,-3.23199 -16.19561,-16.64821 -16.61429,-18.80718 -0.13142,-0.67778 0.74105,-1.78476 1.93885,-2.45995 3.11788,-1.75755 0.89012,-3.29011 -2.57191,-1.76933 -2.4499,1.07619 -3.10592,0.86157 -5.15428,-1.68631 -4.68511,-5.82755 -4.36514,-7.64133 1.87898,-10.65083 1.48944,-0.71786 3.07903,-2.02171 3.53243,-2.89744 0.92726,-1.79094 -7.63718,3.42 -9.45811,5.7547 -0.85776,1.09976 -1.87731,0.27858 -5.74309,-4.62574 -2.5851,-3.27957 -4.81549,-6.74221 -4.95643,-7.69472 -0.14092,-0.95251 -0.92755,-1.75891 -1.74812,-1.79196 -0.82055,-0.0331 -3.63693,-2.65505 -6.25862,-5.82664 -2.62173,-3.17157 -7.99201,-9.63073 -11.93399,-14.35365 -4.63221,-5.5499 -6.91237,-8.87331 -6.44666,-9.39624 0.39631,-0.44501 -0.28834,-0.94665 -1.52144,-1.11474 -2.12411,-0.28956 -2.1468,-0.36124 -0.43144,-1.36277 2.29389,-1.33931 6.42776,-7.36646 4.8415,-7.05885 -0.65145,0.12634 -1.98349,1.44862 -2.96009,2.93841 -2.15596,3.2889 -3.97471,3.35891 -6.38981,0.24599 -1.00288,-1.29266 -5.93646,-7.24105 -10.96353,-13.21863 -8.68333,-10.32519 -11.40892,-14.8561 -9.56275,-15.89678 0.45496,-0.25645 0.96863,0.35799 1.14148,1.36544 0.2198,1.28094 0.58075,0.8186 1.20048,-1.53766 0.98115,-3.73059 -0.72525,-4.76384 -2.71616,-1.64467 -1.16296,1.82201 -1.22372,1.79446 -0.85424,-0.38747 0.36231,-2.13951 0.28558,-2.21539 -0.86047,-0.85082 -0.69204,0.824 -1.44534,1.60362 -1.67399,1.73251 -0.22865,0.12889 0.11909,0.52925 0.77277,0.8897 0.73635,0.40603 0.67259,0.63455 -0.16764,0.60068 -4.39635,-0.17716 -2.932,-8.13015 1.49949,-8.14385 2.40388,-0.007 6.02383,-3.28875 4.53426,-4.11013 -0.59893,-0.33025 -1.79091,0.079 -2.64885,0.90933 -0.91968,0.89015 -2.59607,1.28723 -4.08451,0.96751 -1.8599,-0.39948 -2.46329,-0.19903 -2.29168,0.76135 0.27263,1.52592 -1.70455,2.87292 -3.09312,2.10726 -0.52836,-0.29135 -4.95277,-5.30837 -9.832,-11.14894 -7.77704,-9.30931 -8.80291,-10.86453 -8.31652,-12.60774 0.30519,-1.09366 1.00751,-2.24366 1.56078,-2.55554 1.31903,-0.74353 -0.45432,-2.32396 -2.22283,-1.98099 -0.81839,0.1587 -0.9032,0.52519 -0.2099,0.90752 0.63964,0.3527 0.84246,0.81405 0.45072,1.02521 -1.78748,0.96352 -3.94537,-0.0156 -6.16972,-2.79922 l -2.41685,-3.0246 3.83096,-1.52999 c 4.15476,-1.65929 4.96264,-4.05256 1.57534,-4.66694 -1.43016,-0.2594 -2.29263,0.24253 -3.86603,2.24987 -1.11386,1.42106 -2.36153,2.4899 -2.77257,2.37521 -0.41108,-0.11472 -1.88237,-2.06687 -3.26955,-4.33815 -1.3872,-2.27129 -2.86151,-4.19661 -3.27626,-4.27849 -0.95358,-0.18826 -10.88253,-11.83505 -15.36787,-18.02667 l -3.39519,-4.68677 2.73333,-1.54077 c 1.50332,-0.84741 2.51235,-1.93277 2.24228,-2.41189 -0.27009,-0.47912 -1.66708,-0.20821 -3.10445,0.60203 -1.74226,0.9821 -2.85892,1.03759 -3.34997,0.16647 -0.40511,-0.71869 -0.24287,-1.58501 0.36056,-1.92516 0.60344,-0.34015 1.14484,-1.67848 1.20311,-2.97406 0.0927,-2.062 -0.11212,-2.23267 -1.64369,-1.36932 -2.22303,1.25311 -2.72932,0.32083 -2.08642,-3.84204 0.80395,-5.20601 5.98281,-11.62939 7.37911,-9.15235 0.29791,0.52851 0.67825,0.0577 0.84521,-1.04614 0.20276,-1.34061 3.70825,-4.7576 10.55724,-10.29067 5.63954,-4.556 10.32479,-8.53141 10.41166,-8.83426 0.0868,-0.30289 1.03358,-0.40299 2.1038,-0.22253 1.55211,0.2617 1.68927,0.18237 0.67767,-0.39233 -0.6974,-0.39606 -0.88937,-0.93357 -0.42658,-1.19444 0.46277,-0.26086 6.4079,-5.11792 13.2114,-10.79347 6.8035,-5.67553 24.3432,-20.23618 38.97713,-32.35698 14.63391,-12.12081 37.162,-30.80538 50.0624,-41.52129 12.9004,-10.71591 25.16454,-20.57501 27.25364,-21.90913 2.08911,-1.3341 3.85299,-2.87281 3.91972,-3.41934 0.0667,-0.54653 2.13384,-2.14877 4.59356,-3.56052 2.45972,-1.41179 4.30138,-2.86993 4.09256,-3.24037 -0.20881,-0.37044 0.77271,-1.60752 2.18114,-2.74907 1.40845,-1.14156 10.65248,-8.75876 20.5423,-16.92712 9.88982,-8.16835 18.59795,-14.94277 19.35139,-15.05424 0.75344,-0.11148 1.18639,-0.52822 0.9621,-0.92611 -0.22429,-0.3979 3.42766,-3.77061 8.11544,-7.49492 4.68778,-3.72431 9.89013,-8.0122 11.56078,-9.52863 8.0892,-7.3425 34.355,-28.53194 35.59469,-28.71536 0.77367,-0.11447 1.42581,-0.68307 1.4492,-1.26358 0.0234,-0.5805 1.7438,-2.36894 3.82312,-3.97431 4.02273,-3.10581 4.79682,-3.73603 8.44008,-6.87152 1.27537,-1.09763 1.95906,-1.48845 1.51932,-0.8685 -1.4083,1.98545 0.0237,2.76826 2.48882,1.36053 1.58651,-0.90602 1.87312,-1.39054 0.85384,-1.44358 -1.22546,-0.0638 -1.3899,-0.4579 -0.81694,-1.95836 0.39457,-1.03315 0.82586,-1.68596 0.95852,-1.45063 0.13264,0.23533 2.19951,-1.36735 4.59302,-3.5615 8.39617,-7.69684 16.35606,-6.92642 26.2455,2.54027 1.23729,1.1844 0.98572,2.11081 -1.3951,5.13737 -2.44984,3.11432 -3.42531,7.4206 -2.18096,9.62808 0.13841,0.24553 1.29279,-2.34535 2.5653,-5.75751 1.83673,-4.92509 2.61307,-6.03884 3.76615,-5.40301 2.12454,1.17149 7.26722,8.20462 7.20098,9.84808 -0.0325,0.80752 0.18258,0.97608 0.50332,0.3944 0.45331,-0.8221 18.16199,19.44609 25.18438,28.82438 0.77268,1.03187 8.60489,10.47347 17.40493,20.98133 38.82615,46.36106 74.18021,89.36359 74.00007,90.00916 -0.10774,0.3861 0.55597,1.17976 1.47481,1.7637 3.12458,1.98562 20.79468,24.30052 22.38255,28.26607 2.00467,5.00649 2.35825,9.43524 0.82242,10.30099 -0.67006,0.37771 -1.19698,0.15816 -1.17095,-0.48788 0.0591,-1.46531 -1.94068,-0.37853 -3.02974,1.64656 -0.65068,1.2099 -0.23297,1.45916 2.10799,1.25787 3.37834,-0.29047 3.77462,1.22707 0.76363,2.92437 -1.14125,0.64331 -2.09631,1.69825 -2.12234,2.34429 -0.0821,2.03678 -3.28577,3.0984 -5.36426,1.77756 -1.09808,-0.69782 -2.09256,-0.92458 -2.20992,-0.50392 -0.11737,0.42066 0.6325,1.08784 1.66631,1.48263 1.03384,0.39479 1.81211,0.95754 1.72946,1.25054 -0.0827,0.293 -5.29673,4.74872 -11.58687,9.90159 -11.33973,9.28948 -17.73879,13.11209 -24.62334,14.70926 -1.8071,0.41924 -3.30238,1.17816 -3.32288,1.6865 -0.0534,1.32439 1.44642,1.55606 3.30201,0.51007 0.87839,-0.49514 1.92853,-0.31224 2.33365,0.40644 0.40512,0.71869 0.40842,1.49168 0.007,1.71777 -2.00217,1.12862 -17.86554,14.0377 -36.72125,29.88251 -11.56747,9.72039 -22.05155,18.15534 -23.29795,18.74433 -1.24642,0.58897 -3.11645,2.14226 -4.15569,3.45169 -1.03922,1.30943 -2.94461,2.97554 -4.23415,3.70245 -1.28956,0.72692 -3.49226,2.48713 -4.89492,3.91159 -3.70884,3.76653 -31.9307,27.12815 -34.04262,28.17996 -0.98594,0.49103 -2.31736,1.57262 -2.95872,2.40354 -0.93369,1.20966 -1.34154,1.09496 -2.04633,-0.5756 -0.48414,-1.14748 -1.49328,-1.97914 -2.24256,-1.84813 -0.95296,0.16663 -0.86892,0.92764 0.27968,2.53259 l 1.642,2.2944 -11.29446,9.49199 c -10.86177,9.12845 -20.98433,17.52007 -83.71048,69.3963 -15.71743,12.99874 -32.27126,26.70292 -36.78626,30.45372 -11.05124,9.18073 -14.37597,11.60842 -16.26425,11.87597 z m 21.76664,-25.9574 c -0.12414,-0.63884 -1.2365,-0.89532 -2.47189,-0.56996 -2.72876,0.71867 -2.89559,1.11807 -1.09068,2.61104 1.50689,1.24645 3.93146,-0.14264 3.56258,-2.04104 z m -21.04784,3.93337 c 0.77653,-1.78695 0.69748,-2.07853 -0.39652,-1.46188 -0.75159,0.42367 -1.52307,1.63341 -1.7144,2.68831 -0.4426,2.44021 0.84181,1.69398 2.11092,-1.22643 z m 54.46987,-34.20764 c -3.72004,-1.03797 -6.39238,0.25124 -5.8834,2.83834 0.25675,1.30501 0.42245,1.24483 1.04835,-0.38077 0.62795,-1.63089 1.18068,-1.80877 3.5589,-1.1452 1.54854,0.43209 3.26098,0.53448 3.80543,0.22757 0.54446,-0.3069 -0.59371,-0.99989 -2.52928,-1.53994 z m -45.09295,22.2123 c 13.80747,-11.38422 14.68745,-12.0126 16.7006,-11.92565 1.13072,0.0489 1.27723,-0.13556 0.46402,-0.58396 -0.65367,-0.36044 -1.06947,-0.72738 -0.924,-0.81541 0.14561,-0.0878 5.70181,-4.71846 12.34739,-10.28982 11.10203,-9.30743 12.27325,-10.08847 14.42782,-9.62122 2.14708,0.46561 2.23326,0.41614 1.0215,-0.58614 -1.61347,-1.33462 -1.3002,-1.67307 10.36576,-11.19912 4.97206,-4.06004 10.24033,-7.77277 11.70728,-8.25053 1.58359,-0.51575 2.45345,-1.24777 2.14112,-1.80186 -0.28934,-0.51327 0.81573,-1.98937 2.45569,-3.28023 1.63997,-1.29086 5.40923,-4.45546 8.37613,-7.03245 18.53766,-16.10131 37.0539,-30.7323 40.6318,-32.10604 2.35239,-0.90319 3.9469,-2.00137 3.97662,-2.73874 0.0766,-1.90011 1.84554,-2.46236 2.11059,-0.67084 0.28335,1.9151 0.496,1.82495 2.64358,-1.12069 0.92066,-1.2628 1.2196,-2.67182 0.66427,-3.13117 -2.15469,-1.78231 6.40221,-7.38436 11.53474,-7.5516 1.7758,-0.0579 3.75246,-0.40042 4.39257,-0.76124 0.64011,-0.36083 1.75353,-0.34275 2.47428,0.0402 3.19905,1.69953 11.96318,0.24803 10.81375,-1.79107 -0.27009,-0.47912 0.37353,-1.39927 1.43022,-2.04478 1.08387,-0.66205 1.29422,-1.08898 0.48264,-0.97942 -0.79125,0.10682 -2.10162,1.23749 -2.91194,2.51261 -1.28177,2.017 -1.91286,2.26117 -4.85473,1.87819 -2.00902,-0.26155 -3.86367,-1.28004 -4.56955,-2.50946 -0.65347,-1.13807 -1.69835,-1.84619 -2.32195,-1.57358 -0.62364,0.27256 -1.8148,0.81493 -2.6471,1.20517 -3.75673,1.76143 -0.021,-1.83389 10.54276,-10.14667 0.87473,-0.68832 3.84418,-3.25126 6.59879,-5.69539 2.75461,-2.44414 5.94368,-4.57611 7.08682,-4.73771 3.00558,-0.42489 3.55375,-0.79542 2.66394,-1.80066 -1.11077,-1.25486 4.18691,-5.82919 5.77049,-4.98257 0.91299,0.48814 1.07236,0.37566 0.62505,-0.44118 -0.33063,-0.60283 -0.22077,-1.31047 0.24331,-1.57208 0.46408,-0.2616 0.9496,0.23959 1.07894,1.11371 0.15266,1.03178 0.75897,1.29407 1.72825,0.7477 0.95482,-0.53823 1.05632,-1.20295 0.28152,-1.84383 -1.5703,-1.29891 -1.14503,-1.96022 3.38733,-5.26738 2.06788,-1.50889 4.22473,-3.15099 4.79298,-3.64909 0.70626,-0.61909 1.38116,-0.1029 2.13284,1.63129 1.17486,2.71049 2.29719,2.59429 4.2237,-0.43729 1.17691,-1.85201 1.14225,-1.90046 -1.70678,-2.38486 l -2.90811,-0.49444 1.8992,-1.72192 c 10.62423,-9.63244 19.88558,-16.60942 22.32619,-16.81927 2.98559,-0.25671 4.86587,-2.30165 2.24069,-2.43693 -1.29462,-0.0667 -1.34503,-0.23206 -0.26133,-0.85713 0.73871,-0.42559 2.11258,-0.56272 3.05352,-0.30392 1.37091,0.37713 1.45123,0.2546 0.4043,-0.61654 -1.0841,-0.90208 -0.0626,-2.10221 6.00173,-7.05111 4.01952,-3.2802 10.46373,-8.61369 14.32046,-11.85221 3.85673,-3.23852 12.30945,-10.23693 18.78381,-15.55201 11.45741,-9.40587 11.74471,-9.72791 10.76463,-12.0663 -0.82951,-1.97917 -19.03141,-24.52671 -24.57113,-30.43743 -1.25586,-1.33995 -1.14878,-2.05014 0.55907,-3.70868 l 2.11237,-2.05138 -2.83859,0.9743 -2.8386,0.97431 -20.7531,-25.03389 c -11.41423,-13.76868 -32.03481,-38.62089 -45.82356,-55.22719 -13.78872,-16.6063 -25.41723,-30.80851 -25.84111,-31.56047 -0.42387,-0.75195 -0.17293,-2.00863 0.55767,-2.7926 0.97099,-1.04194 0.88259,-1.95229 -0.3286,-3.38393 -1.77164,-2.09406 -3.76338,-1.12892 -2.47531,1.19945 0.97284,1.75859 0.47259,3.82974 -0.52997,2.19417 -0.40744,-0.66477 -5.15162,-6.47085 -10.54256,-12.90246 -8.54791,-10.19797 -9.98126,-11.54464 -11.20525,-10.52753 -0.77194,0.64146 -1.86001,0.91459 -2.41797,0.60693 -0.55793,-0.30765 -1.97132,0.25019 -3.14085,1.23965 -1.16953,0.98945 -1.75385,2.00444 -1.29846,2.25554 0.81234,0.44794 -0.6683,1.94647 -6.22787,6.30298 -3.87797,3.03882 -5.82217,4.65528 -12.7263,10.58098 -3.31128,2.84203 -6.33467,5.26792 -6.71863,5.39088 -0.38395,0.12299 -1.14972,0.797 -1.70167,1.49789 -2.09759,2.66356 -22.63199,18.90753 -23.0235,18.213 -0.22587,-0.40071 -1.224,-0.14705 -2.21804,0.56369 -2.52402,1.80465 -4.27998,-0.58588 -3.22023,-4.38397 0.54264,-1.94471 1.91112,-3.67333 3.71161,-4.68825 2.67103,-1.50565 2.70863,-1.65554 0.5924,-2.36139 -1.24281,-0.41455 -3.04517,-0.19924 -4.00521,0.47843 -1.10813,0.78218 -1.89916,0.74328 -2.1662,-0.10653 -0.27557,-0.87694 -0.80273,-0.87672 -1.52845,6.4e-4 -0.60929,0.73659 -1.70569,1.67629 -2.43644,2.08821 -0.87383,0.49257 -0.86505,1.13243 0.0256,1.86918 2.93535,2.42803 2.36042,4.82136 -1.70929,7.11544 -2.15603,1.21534 -3.62989,2.5873 -3.33724,3.10648 0.31807,0.56427 1.15953,0.25562 2.14031,-0.78508 1.55963,-1.65493 1.59653,-1.62508 1.05496,0.85328 -0.30867,1.4125 -0.0215,3.52553 0.63802,4.69563 1.15368,2.04662 0.80421,2.45179 -9.19845,10.66473 -5.71874,4.69551 -25.888,21.37583 -44.8206,37.06742 -18.93259,15.69156 -35.21219,28.73798 -36.17687,28.99205 -0.96468,0.25406 -1.37743,0.66958 -0.91726,0.9233 0.46018,0.25375 -1.05371,1.91973 -3.3642,3.70218 -2.3105,1.78245 -4.74022,3.65866 -5.39938,4.16936 -0.65917,0.5107 -9.80034,8.1206 -20.3137,16.91088 -10.51337,8.79028 -30.22449,25.14097 -43.8025,36.33485 -13.57801,11.1939 -25.27866,20.87583 -26.00142,21.51541 -0.72277,0.6396 -1.45547,0.71438 -1.6282,0.16623 -0.17274,-0.54815 -0.90536,-0.90011 -1.62804,-0.7821 -0.72269,0.118 -0.96411,0.83522 -0.53644,1.59385 0.42761,0.7586 0.11108,1.75495 -0.70381,2.21396 -1.10856,0.62489 -1.37197,0.44431 -1.04762,-0.71818 0.32436,-1.16249 -0.53805,-1.64276 -3.42998,-1.9101 -2.12481,-0.19643 -4.03508,-0.9427 -4.24505,-1.6584 -0.31289,-1.06654 -0.5119,-0.96044 -1.10331,0.5883 -0.9928,2.59989 -0.62763,2.94013 3.49029,3.252 4.47604,0.33899 5.37856,1.76454 2.61791,4.13509 -3.997,3.43218 -12.22416,10.06148 -13.75198,11.08109 -2.01201,1.34273 -1.81165,1.64535 12.40029,18.72815 6.7253,8.08387 13.08229,15.76598 14.12663,17.07138 1.04433,1.30539 4.44297,5.33016 7.55251,8.94392 3.10955,3.61374 6.52135,7.92248 7.58177,9.57495 1.06043,1.65246 2.35383,3.24795 2.87423,3.5455 0.5204,0.29756 2.161,2.05166 3.64577,3.89801 2.43574,3.02882 2.52685,3.45435 0.93219,4.35325 -0.97208,0.54795 -1.78984,1.55243 -1.81722,2.23216 -0.0314,0.77914 0.799,0.62923 2.24697,-0.40566 l 2.29678,-1.64154 7.82858,9.36227 c 4.30572,5.14925 10.56631,12.72644 13.91244,16.8382 3.34612,4.11177 6.74125,8.18329 7.54472,9.04784 1.26187,1.3578 1.09941,1.71224 -1.19269,2.60203 -1.45944,0.56656 -3.41137,1.9767 -4.33757,3.13373 -1.50568,1.88084 -1.26095,1.87286 2.31074,-0.0755 4.45907,-2.43228 6.71885,-2.23398 8.39342,0.73672 0.87735,1.55642 0.64336,2.27759 -1.04842,3.23122 -1.1978,0.67519 -1.96237,1.60984 -1.69904,2.07699 0.26332,0.46714 1.4556,0.009 2.64952,-1.01909 l 2.17072,-1.86843 8.01582,9.64323 c 4.4087,5.30379 9.78671,11.70388 11.95111,14.22243 3.1641,3.6818 3.75666,4.7765 3.02375,5.58605 -0.69175,0.7641 -0.4468,1.06293 1.01587,1.23937 1.06009,0.12787 2.98458,1.70286 4.27665,3.49999 1.29207,1.79712 4.60937,5.81836 7.37177,8.93609 2.7624,3.11772 5.42322,6.97731 5.91292,8.57685 0.56304,1.83903 1.09913,2.52967 1.45817,1.87854 0.56359,-1.02209 4.43596,2.29516 4.09706,3.50974 -0.0973,0.34862 -1.4539,0.27754 -3.01474,-0.15797 -3.61242,-1.00793 -4.03541,-0.73411 -2.28674,1.48035 1.02059,1.29246 1.87163,1.4318 3.07388,0.50326 1.96919,-1.52088 4.02949,-0.38288 7.80653,4.31191 2.12507,2.64144 2.98962,3.11545 3.93113,2.15534 0.6638,-0.67692 6.14421,-5.30157 12.17869,-10.27698 z M 380.9013,623.4686 c 1.16612,-2.5689 -0.39673,-3.4303 -2.10527,-1.16036 -2.15327,2.86076 -5.81988,4.77873 -7.10438,3.71621 -0.67531,-0.55859 -0.92174,-1.5708 -0.54751,-2.24942 0.37418,-0.67858 0.37174,-1.52905 -0.005,-1.88995 -0.37717,-0.3609 -0.58553,-2.0041 -0.46302,-3.65157 0.2131,-2.86589 -2.51598,-8.13542 -5.52209,-10.66244 -2.43023,-2.04292 -9.27942,-10.90676 -9.23722,-11.95426 0.0238,-0.58927 -0.49402,-1.09305 -1.1506,-1.11951 -2.00328,-0.0807 -2.14431,-1.48538 -0.30691,-3.0568 l 1.7427,-1.49043 -2.30923,0.45292 c -3.62646,0.71125 -11.38747,-7.94675 -8.55478,-9.54352 1.88964,-1.06519 0.57769,-2.73282 -1.6818,-2.13774 -2.13631,0.56262 -5.23137,-2.1772 -5.86037,-5.18773 -0.22599,-1.08165 -0.80529,-1.7443 -1.28734,-1.47258 -0.48205,0.27173 -2.17906,-1.22538 -3.77114,-3.32692 -1.59206,-2.10153 -3.46726,-4.39686 -4.16711,-5.10071 -1.1194,-1.12581 -0.75729,-1.48376 3.01067,-2.97599 2.68716,-1.0642 4.09512,-2.02979 3.77857,-2.59136 -0.66376,-1.1775 -4.62208,-0.0566 -6.61635,1.87365 -1.11123,1.07553 -1.99449,1.13726 -2.98997,0.20904 -2.56406,-2.39083 -13.77518,-17.15281 -13.57411,-17.87339 0.10837,-0.3884 0.91074,0.0312 1.78307,0.93249 0.87232,0.90128 2.03169,1.39065 2.57637,1.0875 0.54449,-0.30348 2.38536,-0.59651 4.09038,-0.6519 3.31379,-0.10768 3.55418,-1.29822 0.37842,-1.87422 -1.05489,-0.19133 -2.19534,-0.83989 -2.53432,-1.44124 -0.33898,-0.60135 -1.49682,-1.25308 -2.57296,-1.44826 -1.73472,-0.31463 -1.85915,-0.66189 -1.09703,-3.06194 0.81462,-2.56547 1.01989,-2.69635 3.92356,-2.50227 2.23979,0.14971 2.78254,-0.0532 2.01779,-0.75446 -0.5754,-0.52759 -2.38352,-0.87929 -4.01806,-0.78157 -2.84165,0.1699 -5.88993,-2.64388 -4.01138,-3.70281 1.16509,-0.65676 -0.70253,-3.85934 -2.28786,-3.92325 -1.7093,-0.0689 -1.82249,0.81911 -0.50143,3.93414 0.84299,1.98772 0.68089,2.81636 -0.64867,3.31625 -3.3133,1.24572 -6.24779,0.86603 -9.12747,-1.18101 -1.58026,-1.12335 -4.06543,-1.97177 -5.52259,-1.88536 -1.45715,0.0864 -3.27862,-0.18061 -4.0477,-0.59338 -2.09081,-1.12216 -4.08954,-5.11098 -3.3971,-6.77949 0.58536,-1.41051 21.67141,-19.41472 24.79827,-21.17388 0.91189,-0.51303 1.89685,-0.19875 2.44943,0.78154 0.50834,0.90179 10.38995,13.0241 21.95914,26.93847 11.56919,13.91437 22.02075,26.55112 23.22571,28.08167 1.20496,1.53055 5.41008,6.60877 9.34474,11.28496 8.11785,9.64775 8.99198,10.94226 7.34403,10.87585 -0.64605,-0.026 -0.94061,0.3678 -0.6546,0.8752 0.28602,0.5074 0.92175,0.69609 1.41273,0.41934 1.16458,-0.65648 3.91325,1.69077 7.2877,6.22336 7.13263,9.58064 9.24448,11.26083 13.94094,11.09145 4.95004,-0.17852 9.24685,5.55417 6.57975,8.77854 -0.96079,1.16154 -22.93514,19.37287 -24.31324,20.14971 -0.35645,0.20091 -0.20115,-0.61925 0.34511,-1.82259 z m 12.88409,-13.53972 c 0.0482,-1.19655 -3.31872,-0.66809 -7.30827,1.14708 -1.50747,0.68587 -3.79506,1.45241 -5.08353,1.7034 -1.89899,0.36992 -2.08937,0.66588 -1.00519,1.56266 0.83607,0.69158 2.36674,0.53273 4.08296,-0.42371 1.50981,-0.84189 3.54771,-1.48151 4.5282,-1.42217 2.24125,0.13561 4.73074,-1.19982 4.78583,-2.56726 z m -12.25426,-3.55424 c 0.026,-0.64603 -0.34468,-0.95363 -0.8238,-0.68356 -0.47912,0.27009 -0.89242,1.01963 -0.91846,1.66567 -0.026,0.64604 0.34468,0.95364 0.8238,0.68357 0.47912,-0.27008 0.89243,-1.01963 0.91846,-1.66568 z m 1.80801,-9.34168 c -0.57926,-0.46268 -0.50077,0.13879 0.17443,1.33659 0.67519,1.1978 1.14914,1.57636 1.05321,0.84122 -0.0959,-0.73512 -0.64838,-1.71514 -1.22764,-2.17781 z m -2.33102,-0.74981 c -0.22524,-0.39959 -0.93811,-0.74782 -1.58415,-0.77385 -0.64604,-0.0261 -1.06916,0.13973 -0.94028,0.36839 0.12889,0.22865 0.34674,1.17533 0.4841,2.10374 0.1828,1.2355 0.54466,1.33151 1.3498,0.35816 0.60503,-0.73144 0.91576,-1.65681 0.69049,-2.05642 z m -11.86287,3.81054 c -0.0737,-2.12356 -0.34579,-2.17247 -3.33242,-0.59871 -1.78873,0.94252 -3.44717,2.06726 -3.68546,2.4994 -0.60534,1.09783 2.79796,1.91423 5.07453,1.21729 2.26792,-0.69428 2.04011,-0.32879 1.94335,-3.11798 z m 0.45636,-7.20269 c -0.45265,-0.12628 -1.22145,0.2663 -1.70842,0.87246 -0.53817,0.66981 -0.21541,0.75987 0.823,0.22959 0.93962,-0.47984 1.33809,-0.97574 0.88545,-1.10204 z m -7.48237,-7.71595 c 0.67173,-1.27848 0.4542,-1.37214 -1.13688,-0.4895 -1.08195,0.60071 -1.74658,1.48354 -1.47651,1.96266 0.61525,1.09146 1.53973,0.57032 2.61339,-1.47316 z m 3.96724,-10.27185 c -0.5662,-0.31221 -1.61746,-0.23619 -2.33614,0.16893 -0.71868,0.40512 -0.84345,0.99202 -0.27726,1.30423 0.5662,0.3122 1.61746,0.23618 2.33614,-0.16894 0.71868,-0.40512 0.84344,-0.99202 0.27726,-1.30422 z m -9.63792,4.28493 c -0.27008,-0.47913 -1.1022,-0.52664 -1.84916,-0.10557 -0.74696,0.42105 -0.89486,1.021 -0.32867,1.33319 0.56618,0.3122 1.39833,0.35968 1.84916,0.10557 0.45084,-0.25414 0.59874,-0.85408 0.32867,-1.33319 z m -3.7703,-12.79785 c -0.27008,-0.47912 -0.9062,-0.63712 -1.41359,-0.35114 -0.50739,0.28602 -0.90542,0.0953 -0.8845,-0.42387 0.0209,-0.51914 -1.42613,-0.162 -3.21568,0.79363 -2.59845,1.3876 -2.7961,1.66856 -0.9813,1.39518 1.24982,-0.1883 2.76812,-0.069 3.37399,0.26506 1.39144,0.76726 3.77671,-0.51583 3.1211,-1.67889 z m -10.48155,-2.30278 c -0.64564,-1.14537 -0.26465,-1.97103 1.32227,-2.86558 1.26432,-0.7127 2.20875,-0.74819 2.1819,-0.082 -0.026,0.64604 0.3678,0.94061 0.8752,0.65459 1.47671,-0.83241 -0.48524,-3.34918 -2.86468,-3.67482 -1.32941,-0.18193 -1.75897,-0.54768 -1.10352,-0.93942 0.59031,-0.35285 0.85926,-1.02123 0.59765,-1.48531 -0.2616,-0.46408 -0.93644,-0.28672 -1.49967,0.39422 -0.667,0.80635 -1.32016,0.7127 -1.8733,-0.26856 -0.73392,-1.30199 -0.95322,-1.23425 -1.61508,0.49898 -0.42122,1.10304 -1.72955,3.06609 -2.90743,4.36233 -2.63038,2.89466 -2.40795,4.86481 0.46384,4.10848 1.1773,-0.31006 2.11927,-0.0361 2.09328,0.60874 -0.026,0.6449 0.48996,1.19417 1.14653,1.22063 0.65658,0.0264 1.52709,0.6394 1.93447,1.36209 0.53835,0.95505 0.11529,1.45617 -1.54876,1.83449 -2.22891,0.50673 -2.22455,0.5295 0.16494,0.86073 2.22469,0.30841 2.50513,0.0913 2.99686,-2.3202 0.29836,-1.46324 0.13434,-3.38448 -0.36449,-4.2694 z m 14.63882,-8.65018 c -1.00158,-0.38243 -2.43598,-0.34874 -3.18757,0.0749 -1.09396,0.61666 -0.88543,0.83529 1.04541,1.0961 3.15555,0.42623 4.459,-0.28631 2.14216,-1.17103 z m -17.88448,-2.66543 c -0.45265,-0.12628 -1.22145,0.2663 -1.70841,0.87245 -0.53817,0.66981 -0.21541,0.75987 0.82299,0.2296 0.93962,-0.47984 1.33809,-0.97575 0.88545,-1.10204 z m -13.27761,-2.90448 c -3.01869,-1.49805 -3.87339,-1.59926 -3.18446,-0.37709 0.92337,1.63807 6.83896,4.11502 7.1516,2.99451 0.0874,-0.31338 -1.69778,-1.49122 -3.96714,-2.61742 z m -5.75139,-2.8944 c -0.27008,-0.47912 -0.88307,-0.65016 -1.36218,-0.3801 -0.47913,0.27008 -0.65016,0.88307 -0.3801,1.36217 0.27008,0.47912 0.88306,0.65016 1.36218,0.3801 0.47912,-0.27008 0.65015,-0.88306 0.3801,-1.36217 z M 306.5875,527.39036 c -0.10614,-0.1883 -0.781,-0.0109 -1.49968,0.39421 -0.71868,0.40512 -1.09266,1.1163 -0.83105,1.58038 0.2616,0.46407 0.93645,0.28672 1.49968,-0.39422 0.56322,-0.68091 0.9372,-1.39207 0.83105,-1.58037 z m 2.72124,-13.50047 c -0.7755,-1.37575 -3.46241,-0.64823 -5.72881,1.55116 -1.87548,1.82004 -1.86718,1.95683 0.10363,1.70661 3.08015,-0.39106 6.21705,-2.20778 5.62517,-3.25779 z m 122.80664,65.12263 c -3.04138,-1.93274 -4.30776,-5.31938 -3.092,-8.2688 0.81565,-1.97874 0.66851,-3.50031 -0.50766,-5.24985 -2.35585,-3.5043 -10.65983,-13.87241 -13.59286,-16.97166 -1.36375,-1.44103 -7.66153,-8.99726 -13.99507,-16.79162 -6.33353,-7.79436 -12.87439,-15.73013 -14.53526,-17.63505 -11.86346,-13.60675 -14.52001,-17.1869 -14.17294,-19.10041 0.2846,-1.56912 0.15702,-1.76008 -0.6729,-1.00719 -0.73375,0.66563 -2.7629,-1.13116 -7.15671,-6.33715 -6.11398,-7.2441 -8.59931,-9.11007 -10.61821,-7.97202 -1.76586,0.9954 -5.66004,-0.81068 -7.04486,-3.26736 -1.65431,-2.93476 -0.0246,-6.09612 5.20918,-10.10507 2.20483,-1.68885 4.70458,-3.66908 5.55499,-4.40052 12.34535,-10.61829 13.11126,-11.17741 14.38033,-10.49778 2.72104,1.45718 3.01164,3.892 0.90016,7.54197 -1.54306,2.66741 -1.70318,3.59885 -0.55244,3.21361 0.89122,-0.29836 2.22371,-1.70854 2.96107,-3.13373 1.31186,-2.53554 1.38111,-2.53907 3.22036,-0.16447 1.72904,2.23233 1.57025,3.1755 -0.66852,3.9707 -0.4336,0.15408 -0.31368,0.54182 0.26653,0.86176 0.58022,0.31994 1.59341,0.27818 2.25153,-0.0928 1.41758,-0.79908 2.50591,0.16475 7.92063,7.01451 2.24411,2.83887 9.62988,11.81852 16.41283,19.95478 9.19739,11.03246 12.25369,15.22831 12.02217,16.5047 -0.23304,1.28485 0.17561,1.78625 1.63933,2.01145 1.85032,0.28468 25.00549,27.0867 29.82478,34.52207 1.94039,2.99369 6.6542,5.43252 8.49477,4.395 1.54205,-0.86925 5.57119,0.77096 6.66636,2.7138 1.56736,2.78051 0.66051,5.93239 -2.34515,8.15091 -1.54022,1.13686 -6.07747,4.90688 -10.08277,8.37779 -6.8001,5.89284 -7.41048,6.25546 -9.21713,5.47575 -1.06412,-0.45926 -2.17421,-1.2166 -2.46687,-1.683 -0.29264,-0.4664 -0.57933,-0.0465 -0.63706,0.93308 -0.074,1.25621 0.45897,1.85443 1.80871,2.03006 1.62416,0.21134 1.57906,0.52224 -0.29797,2.05495 -4.11165,3.35744 -6.07882,4.09451 -7.87735,2.95159 z m 29.66071,-26.76803 c -0.20953,-0.35541 -1.07139,-1.01692 -1.91442,-1.47047 -1.89825,-1.02125 -2.51624,0.63502 -0.7745,2.07574 1.28635,1.06402 3.39486,0.58941 2.68892,-0.60527 z m -12.1347,4.91556 c -0.38531,-0.68355 -1.48764,-1.03538 -2.44969,-0.78162 -1.12764,0.29717 -0.95607,-0.0334 0.48294,-0.93037 1.22759,-0.76523 2.39377,-2.2833 2.59149,-3.3735 0.297,-1.63743 -0.0347,-2.09218 -1.90727,-2.61466 -2.11428,-0.58997 -2.30921,-0.4679 -2.89679,1.81372 -0.60343,2.34316 -0.5578,2.37108 1.08339,0.66275 1.27103,-1.32302 1.78496,-1.42227 1.99075,-0.38443 0.15259,0.76945 -0.89718,2.22299 -2.33279,3.23009 -1.96519,1.37859 -2.80705,1.48188 -3.40688,0.41777 -0.43818,-0.77732 -1.05211,-0.95005 -1.36432,-0.38383 -1.1205,2.03206 0.99196,3.68226 4.10231,3.20463 1.74319,-0.26769 3.34197,-0.18064 3.55283,0.19344 0.21088,0.37407 0.57941,0.56965 0.81897,0.43461 0.23956,-0.13504 0.12031,-0.8048 -0.26502,-1.48835 z m 4.07679,-4.55761 c -0.99457,-0.32014 -2.00615,-0.23081 -2.24795,0.19854 -0.65598,1.16477 1.28687,1.94462 2.76661,1.11051 1.05925,-0.5971 0.96659,-0.83095 -0.51866,-1.30905 z m -10.54903,-2.8513 c -0.25414,-0.45084 -1.2941,-0.35067 -2.31099,0.22252 -1.53864,0.86732 -1.54557,1.15807 -0.0412,1.73251 1.82709,0.6977 3.20297,-0.44583 2.35224,-1.95503 z m -18.05388,-11.1117 c -0.45265,-0.12629 -1.22144,0.26629 -1.70841,0.87245 -0.53817,0.66981 -0.21541,0.75987 0.823,0.2296 0.93962,-0.47986 1.33808,-0.97576 0.88545,-1.10205 z m -12.39945,-29.88788 c -1.38467,-0.38638 -1.36382,1.35869 0.0254,2.12472 1.04943,0.57867 1.255,0.46373 1.05107,-0.58789 -0.13942,-0.71898 -0.62385,-1.41057 -1.07648,-1.53687 z m -1.31681,-4.16035 c 0.026,-0.64604 -0.58695,-0.81707 -1.36218,-0.3801 -0.77523,0.43699 -0.94627,1.04998 -0.3801,1.36217 0.56618,0.31221 1.17916,0.48327 1.36217,0.3801 0.18301,-0.10316 0.35405,-0.71614 0.3801,-1.36218 z m -32.03487,-4.90074 c -0.27008,-0.47912 -0.9062,-0.63711 -1.41359,-0.35113 -0.50739,0.28602 -0.45929,0.77547 0.1069,1.08767 0.5662,0.31221 1.20231,0.47023 1.41358,0.35114 0.21129,-0.1191 0.16314,-0.60857 -0.10689,-1.08768 z m -6.27272,-9.09137 c -0.98049,-0.0593 -2.17471,0.1131 -2.65384,0.38318 -0.47911,0.27009 -0.0689,0.53959 0.91158,0.59892 0.9805,0.0593 2.17472,-0.1131 2.65384,-0.38318 0.47912,-0.27008 0.0689,-0.53959 -0.91158,-0.59892 z m -3.65098,-1.38576 c -0.5662,-0.3122 -1.49294,-0.29846 -2.05943,0.0305 -0.61897,0.35924 -0.31843,0.64122 0.75273,0.70604 2.2832,0.13816 2.58477,-0.0318 1.3067,-0.73658 z m 6.31198,-17.9376 c -0.41941,-0.11697 -0.63397,0.64103 -0.47683,1.68455 0.22711,1.50803 0.38357,1.55168 0.76255,0.21281 0.26222,-0.92653 0.13367,-1.78031 -0.28574,-1.89734 z m -2.13407,-2.14271 c -0.1191,-0.21128 -0.74513,-0.40545 -1.39116,-0.43152 -0.64604,-0.026 -0.9406,0.36781 -0.65458,0.8752 0.28602,0.5074 0.91204,0.70157 1.39115,0.43153 0.47913,-0.27008 0.77369,-0.66393 0.65459,-0.87521 z m -5.19045,-13.28075 c -0.42105,-0.74696 -1.021,-0.89485 -1.33319,-0.32867 -0.31221,0.5662 -0.35968,1.39833 -0.10557,1.84916 0.25414,0.45084 0.85407,0.59874 1.33319,0.32867 0.47913,-0.27008 0.52664,-1.1022 0.10557,-1.84916 z m 110.84971,88.80394 c -3.03732,0.21104 -11.70474,-2.19135 -14.49337,-4.01719 -2.08843,-1.3674 -2.55663,-2.06702 -2.0266,-3.02826 0.50307,-0.91233 0.14774,-1.24836 -1.31529,-1.24382 -1.1025,0.003 -2.12909,-0.6359 -2.28128,-1.42077 -0.1522,-0.78484 -0.99329,-1.62689 -1.86904,-1.87126 -0.87577,-0.24435 -3.67715,-3.0607 -6.2253,-6.25852 -12.55849,-15.76044 -18.33745,-20.66751 -23.433,-19.8975 -1.45425,0.21975 -2.96294,-0.1661 -3.35265,-0.85746 -0.38972,-0.69135 -1.32952,-1.77064 -2.08846,-2.39841 -1.12073,-0.92703 -0.88971,-1.34439 1.23006,-2.22218 1.43547,-0.59443 2.51388,-1.58492 2.39647,-2.20109 -0.13363,-0.70132 -1.11806,-0.41964 -2.63215,0.75307 -2.04126,1.58104 -2.58065,1.58608 -3.45653,0.0322 -0.57082,-1.01263 -0.6559,-2.05643 -0.18908,-2.31957 0.46682,-0.26314 0.79027,-2.10018 0.71879,-4.08229 -0.14615,-4.05252 -3.0382,-8.17056 -17.78648,-25.32649 -5.51154,-6.4113 -7.47208,-9.22456 -7.02711,-10.08347 0.40872,-0.78894 0.17227,-0.94886 -0.70017,-0.47352 -0.72452,0.39475 -2.64678,-0.0795 -4.27166,-1.05384 -1.62489,-0.97436 -4.17118,-1.66695 -5.65841,-1.53908 -2.15271,0.18511 -3.31915,-0.57664 -5.72075,-3.73595 -1.65918,-2.18264 -2.93695,-4.25422 -2.83949,-4.6035 0.38322,-1.37351 9.6392,-8.17177 12.37145,-9.0865 6.03215,-2.01951 9.56651,-2.41342 9.55749,-1.06518 -0.005,0.74111 0.14343,0.89229 0.32975,0.33595 0.53953,-1.611 4.7276,-1.27439 4.97532,0.3999 0.14047,0.94939 0.78636,1.1906 1.74342,0.65108 3.10415,-1.7498 14.59689,6.46018 22.29957,15.92998 2.10961,2.59358 2.0999,2.62884 -1.00603,3.65428 -2.3339,0.77055 -2.67059,1.07996 -1.31616,1.20949 1.00102,0.0957 2.49512,-0.19857 3.32023,-0.65401 1.2098,-0.66784 1.94399,-0.0228 3.79298,3.33218 2.752,4.99345 4.62253,11.45649 3.49909,12.08977 -0.44562,0.25119 -0.31429,0.86692 0.29176,1.36825 1.46051,1.20809 0.20668,7.50649 -1.26509,6.35501 -0.62212,-0.48674 -2.64755,0.0575 -4.8641,1.30695 -2.93731,1.65575 -3.8581,2.75302 -4.06282,4.8415 -0.35708,3.64271 0.27759,4.48096 1.99633,2.63664 0.78722,-0.84473 3.0166,-2.61727 4.9542,-3.93898 2.93629,-2.00297 3.24883,-2.06374 1.87695,-0.36489 -0.90527,1.12102 -2.19711,2.11978 -2.87077,2.21945 -0.67365,0.0997 -1.56837,0.80431 -1.9883,1.56583 -1.20488,2.18509 2.36396,3.04965 6.48369,1.57066 6.5473,-2.35047 10.41514,-2.54612 15.81448,-0.79996 6.12497,1.98078 9.42012,4.87799 20.48673,18.01231 4.18793,4.97042 7.9256,8.86172 8.30591,8.64735 0.3803,-0.21438 0.43851,-1.79691 0.12935,-3.51673 -1.33838,-7.44494 6.42939,-4.86246 9.4877,3.15431 2.09122,5.48171 2.44047,15.24488 0.68254,19.08014 -1.45944,3.18407 -8.88379,8.69724 -12.00415,8.91404 z m -5.81028,-7.3403 c -1.05257,-1.86727 -3.43176,-0.17073 -2.72427,1.94262 0.43205,1.29055 0.98683,1.44534 2.02461,0.56494 0.78622,-0.66701 1.10107,-1.79541 0.69965,-2.50752 z m -7.48526,-6.15134 c -0.88658,-1.57279 -2.46226,-0.6988 -1.98784,1.10263 0.35275,1.33938 0.78778,1.56982 1.4506,0.76848 0.52073,-0.62952 0.76249,-1.47153 0.53727,-1.8711 z m 3.77717,-5.51792 c -0.27007,-0.47912 -0.90619,-0.63711 -1.41358,-0.35113 -0.50739,0.28602 -0.45928,0.77547 0.1069,1.08767 0.5662,0.31221 1.20231,0.47023 1.41359,0.35114 0.21128,-0.1191 0.16313,-0.60857 -0.10691,-1.08768 z m -10.74767,-18.04819 c 0.026,-0.64604 -0.36781,-0.9406 -0.8752,-0.65458 -0.50741,0.28601 -1.25401,-0.068 -1.65912,-0.78667 -0.40512,-0.71868 -1.1286,-1.08572 -1.60772,-0.81565 -0.99403,0.56035 -0.55232,1.60863 1.33616,3.1707 1.4842,1.22769 2.736,0.82003 2.80588,-0.9138 z m -8.71964,-4.26825 c -1.18847,-0.0719 -1.42224,-0.31692 -0.70132,-0.73503 0.59498,-0.34457 0.89107,-0.96481 0.65844,-1.37748 -0.23263,-0.41269 -1.34936,0.0334 -2.48162,0.99134 -1.42105,1.20226 -2.04188,1.32514 -2.00447,0.39678 0.0298,-0.73972 -0.40895,-1.08386 -0.97501,-0.76477 -0.75971,0.42825 -0.93665,0.0698 -0.67571,-1.36875 0.19442,-1.0719 0.0759,-2.02635 -0.26336,-2.12101 -0.86621,-0.24169 -3.02112,4.48093 -2.48148,5.43828 0.88604,1.57185 6.31317,2.16017 8.48342,0.91965 1.75458,-1.00294 1.84767,-1.2939 0.44088,-1.37908 z m -3.65392,-6.48206 c -0.1191,-0.21128 -0.74512,-0.40546 -1.39115,-0.43153 -0.64604,-0.026 -0.9406,0.36781 -0.65458,0.87521 0.28602,0.50739 0.91204,0.70157 1.39115,0.43152 0.47912,-0.27007 0.77368,-0.66392 0.65458,-0.8752 z m -18.23288,5.49551 c 1.56753,-1.89504 0.56334,-2.95817 -1.19064,-1.26054 -0.81698,0.79075 -1.29023,1.78401 -1.05164,2.20724 0.51338,0.91074 0.80917,0.78586 2.24228,-0.9467 z m -8.98012,-51.1835 c -0.45265,-0.12628 -1.22143,0.2663 -1.70841,0.87246 -0.53817,0.6698 -0.21541,0.75986 0.82299,0.22959 0.93963,-0.47984 1.3381,-0.97574 0.88545,-1.10204 z m -14.96609,-1.97348 c -0.90564,-0.25268 -3.48069,3.12666 -2.70741,3.55305 0.49023,0.27031 1.376,-0.39731 1.96841,-1.48362 0.59239,-1.08631 0.92495,-2.01756 0.73899,-2.06944 z m 0.95716,-4.13763 c -0.41938,-0.11707 -0.97144,0.54686 -1.22676,1.47531 -0.36901,1.34169 -0.2125,1.38535 0.76254,0.2128 0.67472,-0.81142 0.88362,-1.57106 0.4642,-1.68809 z m 95.6745,76.92242 c -3.18037,-2.02106 -4.24865,-4.93985 -3.24398,-8.86328 l 0.9412,-3.67553 -34.93464,-42.0836 c -19.21405,-23.14598 -35.76774,-42.78951 -36.78599,-43.65228 -1.01822,-0.86278 -2.68164,-1.4242 -3.69645,-1.24765 -5.08633,0.88505 -9.88321,-3.12464 -8.39631,-7.01846 0.80065,-2.09669 24.22627,-21.9392 25.40099,-21.51575 0.46758,0.16857 10.31408,11.76021 21.8811,25.75925 11.56703,13.99904 24.67314,29.85683 29.12472,35.23955 6.90923,8.35447 7.99415,10.02943 7.41325,11.44485 -0.89955,2.1918 -0.21602,3.28421 1.07693,1.72109 0.56323,-0.6809 1.21284,-0.9732 1.44357,-0.64957 0.23077,0.32363 0.8976,1.09382 1.4819,1.71149 2.30322,2.43482 25.87709,30.68774 26.44279,31.69127 0.37027,0.65687 -1.62096,2.81746 -5.16402,5.60322 -3.17167,2.49374 -6.93646,5.66626 -8.36622,7.05001 -1.42976,1.38375 -4.86187,4.13994 -7.6269,6.12487 -4.53993,3.25906 -5.21778,3.48791 -6.99192,2.36048 z m -12.14536,-43.67957 c -2.7012,1.01628 -2.87855,2.11452 -0.48882,3.02706 1.79321,0.68477 1.98361,0.55535 2.23726,-1.52037 0.24514,-2.00596 0.0426,-2.18053 -1.74844,-1.50669 z m -7.27717,1.9812 c -0.39099,-0.1091 -0.99573,0.31821 -1.34386,0.94956 -0.45434,0.82397 -0.0966,1.35312 1.26757,1.87505 1.7123,0.65512 1.84541,0.56106 1.34386,-0.94956 -0.30618,-0.92219 -0.87659,-1.76597 -1.26757,-1.87505 z m 19.85722,-9.34314 c 0.0786,-1.9501 -0.83674,-1.69842 -1.32241,0.36363 -0.23991,1.0186 -0.0519,1.63537 0.41786,1.37057 0.46973,-0.26478 0.87678,-1.04517 0.90455,-1.7342 z m 32.32564,26.72822 c -0.32501,-0.18979 -1.81736,-1.87014 -3.31636,-3.73405 -2.64191,-3.285 -2.66552,-3.56073 -0.77006,-8.99312 2.47245,-7.08602 1.73631,-14.2641 -2.53793,-24.74723 -1.81954,-4.46268 -3.08712,-9.01347 -2.81683,-10.11288 0.43409,-1.76573 0.82335,-1.86988 3.33674,-0.8928 1.56495,0.60838 3.4508,2.18022 4.19082,3.49301 0.74002,1.3128 2.33822,3.32495 3.55157,4.47145 3.41744,3.22919 19.19095,22.87126 18.9784,23.633 -0.31947,1.14498 -19.9867,17.25037 -20.61635,16.88262 z M 535.685,462.656 c -0.68091,-0.56322 -1.57578,-0.83365 -1.98859,-0.60096 -0.41283,0.23271 -0.1935,0.88393 0.4874,1.44715 0.68092,0.56323 1.57578,0.83365 1.98859,0.60095 0.41283,-0.23271 0.1935,-0.88392 -0.4874,-1.44715 z m 26.65641,9.53845 c -3.63884,-1.01531 -5.40672,-4.74215 -4.2999,-9.0645 l 0.93386,-3.64688 -16.43928,-19.81774 c -9.04161,-10.89976 -23.25136,-28.01393 -31.57722,-38.03149 -12.378,-14.89306 -14.9984,-18.46673 -14.37271,-19.60144 0.63126,-1.14482 0.46536,-1.39282 -0.94811,-1.417 -0.94232,-0.0161 -3.32172,-1.77162 -5.28756,-3.90117 -2.91893,-3.16198 -4.37567,-3.91973 -7.94517,-4.13279 -4.84058,-0.28891 -8.48934,-3.8563 -7.25375,-7.09197 1.03975,-2.72287 24.42566,-21.88249 25.74179,-21.08976 0.59621,0.3591 6.31656,7.00163 12.7119,14.76116 11.13856,13.51454 39.97116,48.41748 46.42246,56.19612 3.6248,4.37059 2.82781,5.57096 -2.80579,4.22589 -1.92487,-0.45958 -3.72369,-0.42951 -3.99737,0.0668 -0.76535,1.38799 3.85879,3.34976 5.98724,2.54007 1.98789,-0.75621 6.40123,1.77971 6.32647,3.63518 -0.0241,0.59763 -1.40981,1.85661 -3.07936,2.79773 -2.03086,1.14479 -3.40661,2.87014 -4.15662,5.21292 -0.61655,1.92597 -0.68304,3.25485 -0.1477,2.9531 0.53534,-0.30178 1.12989,-1.41179 1.32123,-2.46668 0.23497,-1.29555 1.96388,-2.82894 5.32734,-4.72491 l 4.97946,-2.80691 9.82319,11.9687 c 5.40276,6.58279 9.98166,12.26681 10.17532,12.63116 0.53666,1.00965 -3.06126,2.75283 -3.62343,1.75554 -0.27009,-0.47912 -1.32308,-0.40209 -2.33997,0.1711 -1.49711,0.84392 -1.5214,1.16732 -0.12764,1.69953 1.84425,0.70425 1.50178,1.05139 -12.62556,12.79775 -5.81053,4.83124 -6.27379,5.06387 -8.72312,4.38045 z m 18.83527,-24.94514 c -1.98385,-0.23543 -6.9223,3.10775 -6.27828,4.25024 0.2188,0.38814 2.13063,-0.36075 4.2485,-1.66421 2.99271,-1.8419 3.44497,-2.41809 2.02978,-2.58603 z m -7.33394,1.35466 c 0.0261,-0.64841 1.15463,-1.48224 2.5078,-1.85294 l 2.46029,-0.67402 -3.63551,-2.1031 c -2.82503,-1.63425 -4.18896,-1.79114 -6.11798,-0.70376 -1.42187,0.8015 -3.96894,1.04485 -5.96175,0.5696 -2.87655,-0.68601 -3.48793,-1.22415 -3.52916,-3.10667 -0.0274,-1.25229 -0.50259,-2.29514 -1.0559,-2.31744 -0.55332,-0.0223 -0.90467,1.13832 -0.78078,2.57915 0.17414,2.02547 0.62681,2.69254 1.99559,2.9408 0.97367,0.1766 1.86387,0.95321 1.97817,1.7258 0.11431,0.77259 0.78109,1.42779 1.4817,1.45604 0.70061,0.0282 1.25228,0.5864 1.22593,1.24038 -0.0267,0.66189 0.62735,0.70837 1.47527,0.10481 3.76028,-2.67661 4.69679,-2.70003 5.39947,-0.13505 0.67496,2.46374 2.46094,2.6568 2.55686,0.2764 z m -19.33599,-21.46792 c -1.27137,-0.35471 -1.37272,0.009 -0.45606,1.63463 0.91663,1.62612 1.27988,1.72746 1.63463,0.45606 0.35471,-1.27138 0.0928,-1.73598 -1.17853,-2.09072 z m 7.004,-1.42267 c -0.27008,-0.47913 -1.1022,-0.52663 -1.84916,-0.10557 -0.74696,0.42105 -0.89485,1.021 -0.32868,1.3332 0.5662,0.3122 1.39833,0.35968 1.84917,0.10556 0.45084,-0.25414 0.59874,-0.85407 0.32867,-1.33319 z m -13.35273,-7.39627 c -0.27008,-0.47912 -0.66391,-0.77368 -0.8752,-0.65458 -0.21129,0.1191 -0.40545,0.74512 -0.43153,1.39115 -0.026,0.64604 0.36781,0.9406 0.87521,0.65459 0.50739,-0.28602 0.70157,-0.91204 0.43152,-1.39116 z m -6.22268,0.52202 c -0.72672,-0.60112 -0.98969,-1.78363 -0.58434,-2.62785 0.61344,-1.27759 0.55123,-1.35236 -0.3711,-0.44598 -1.25672,1.23497 -0.0169,5.45972 1.37236,4.67657 0.49742,-0.2804 0.30977,-1.00163 -0.41692,-1.60274 z m -43.93089,-43.54284 c -1.21176,-0.66818 -4.43289,1.16814 -3.85312,2.19665 0.24758,0.4392 1.03649,0.69324 1.75326,0.56423 1.82282,-0.32732 3.20884,-2.14975 2.09999,-2.76119 z m 96.21637,72.44743 c -0.41721,-0.24066 -1.98502,-1.96257 -3.48403,-3.82647 -2.6419,-3.28502 -2.66551,-3.56074 -0.77004,-8.99314 2.47244,-7.086 1.73629,-14.26408 -2.53794,-24.74721 -3.57861,-8.777 -3.74274,-12.08562 -0.57106,-11.51035 2.18259,0.39587 4.81651,3.2197 18.21072,19.52373 10.90598,13.27523 10.97028,13.46749 5.53953,16.56347 -1.51452,0.86291 -4.72716,3.41124 -7.13967,5.66216 -7.5764,7.06891 -8.4695,7.77661 -9.24751,7.32781 z m 0.0933,-10.67519 c -0.27008,-0.47912 -1.07906,-0.53967 -1.79774,-0.13455 -0.71869,0.40512 -1.08573,1.12859 -0.81565,1.6077 0.27008,0.47913 1.07907,0.53968 1.79775,0.13456 0.71869,-0.40512 1.08572,-1.12859 0.81564,-1.60771 z m -210.32382,124.923 c -1.43436,-0.74212 -2.58568,-1.90113 -2.55849,-2.57557 0.0272,-0.67445 -0.3028,-1.02773 -0.7333,-0.78506 -1.06322,0.59933 -5.36644,-2.62443 -5.31184,-3.97937 0.0241,-0.59763 -0.2761,-0.91271 -0.66708,-0.70019 -0.39106,0.21241 -3.16648,-0.20229 -6.16776,-0.92183 -4.37962,-1.04998 -6.04069,-2.05717 -8.4143,-5.102 -2.18451,-2.80226 -2.84437,-4.35584 -2.52482,-5.94451 0.71089,-3.53438 -0.73141,-8.86534 -3.93719,-14.55239 -2.97723,-5.28161 -3.25484,-7.981 -0.95414,-9.27789 0.63471,-0.35779 1.98246,0.0448 2.99498,0.8946 1.58081,1.32678 19.49412,22.78452 23.94839,28.68697 0.83567,1.10735 3.21549,3.97249 5.28851,6.367 2.07301,2.3945 3.88245,5.11966 4.02097,6.05591 0.37026,2.50246 -2.00378,3.37622 -4.98394,1.83434 z m -4.17872,-9.03734 c 0.4753,-1.09947 0.48661,-2.1044 0.0251,-2.23315 -1.10051,-0.30707 -3.24937,3.10016 -2.63858,4.18371 0.64405,1.14255 1.57745,0.44589 2.61343,-1.95056 z m -20.68869,-28.07857 c -0.27008,-0.47912 -1.1022,-0.52663 -1.84916,-0.10557 -0.74695,0.42106 -0.89486,1.021 -0.32867,1.3332 0.56619,0.3122 1.39832,0.35968 1.84916,0.10557 0.45085,-0.25414 0.59874,-0.85408 0.32868,-1.3332 z m 153.88151,-67.51748 c -0.83631,-0.31937 -3.50764,-2.19422 -5.93629,-4.16634 -5.26322,-4.27389 -10.40044,-6.72547 -12.96868,-6.18888 -2.43857,0.50948 -5.74297,-2.90654 -4.6963,-4.85496 0.61679,-1.1482 0.46172,-1.27099 -0.756,-0.59857 -1.10585,0.61061 -1.93044,0.13917 -2.96425,-1.69479 -0.78772,-1.39743 -1.10241,-2.90511 -0.6993,-3.35037 1.33345,-1.47291 -0.6601,-9.06327 -3.92579,-14.94739 -2.293,-4.13154 -3.00995,-6.33525 -2.49759,-7.67698 1.66468,-4.35936 4.46604,-1.66378 27.5418,26.50175 5.24325,6.39975 9.81593,12.668 10.1615,13.92944 0.68713,2.5082 -0.86648,3.96075 -3.2591,3.04709 z m -16.5288,-24.83096 c -0.27008,-0.47912 -0.66392,-0.77368 -0.8752,-0.65458 -0.21129,0.1191 -0.40546,0.74512 -0.43152,1.39115 -0.026,0.64605 0.36781,0.94061 0.8752,0.65459 0.5074,-0.28602 0.70157,-0.91204 0.43153,-1.39116 z m 72.65242,-27.84786 c -2.17895,-1.6652 -4.07504,-3.22865 -4.21351,-3.47429 -0.13848,-0.24566 -1.6357,-1.09602 -3.32717,-1.88969 -1.69146,-0.79366 -2.96643,-1.83357 -2.83323,-2.31091 0.13316,-0.47735 -0.33726,-0.54126 -1.04547,-0.14205 -4.11882,2.32177 -13.72325,-6.06328 -12.39554,-10.82178 0.80755,-2.8942 -0.75469,-8.70371 -3.79413,-14.10932 -1.39321,-2.47768 -2.6446,-5.25913 -2.78098,-6.18093 -0.27853,-1.8825 2.37722,-3.79154 4.01684,-2.88745 0.58823,0.32436 6.39657,6.9942 12.90743,14.82186 18.17995,21.85678 17.44322,20.82988 15.66355,21.83308 -1.35699,0.76493 -1.17888,0.97682 1.53492,1.82614 3.50217,1.09607 4.5084,3.95073 1.90906,5.41597 -1.16593,0.65724 -2.89229,0.0206 -5.64177,-2.08063 z m -9.90036,-12.11586 c -0.28943,-1.09895 -1.00518,-2.01739 -1.59058,-2.04098 -0.58539,-0.0236 -0.8484,0.34018 -0.58447,0.80841 0.26393,0.46819 0.59146,1.60548 0.72784,2.52729 0.13639,0.92181 0.63621,1.45716 1.11071,1.18968 0.47451,-0.26747 0.62593,-1.38545 0.3365,-2.4844 z m -4.80858,-8.13855 c 0.53443,-2.12211 -0.53699,-3.00606 -1.28125,-1.05707 -0.38243,1.00158 -0.0693,2.82543 0.69594,4.05302 1.09585,1.75792 1.27174,1.81177 0.8283,0.25345 -0.30968,-1.08816 -0.41901,-2.55042 -0.24297,-3.24944 z m -1.2698,-5.65526 c 0.0583,-1.29558 -0.21098,-2.17695 -0.59834,-1.95859 -0.90751,0.51156 -1.73384,3.45801 -1.22361,4.36315 0.72351,1.28351 1.71492,-0.0249 1.82195,-2.40456 z m -5.84859,-4.73871 c -0.27008,-0.47912 -0.9062,-0.63711 -1.41358,-0.35113 -0.5074,0.28602 -0.45929,0.77547 0.10689,1.08767 0.5662,0.31221 1.20231,0.47023 1.4136,0.35114 0.21127,-0.1191 0.16313,-0.60857 -0.10691,-1.08768 z M 360.18137,514.09907 c -0.71375,-0.0288 -4.70628,-2.35152 -8.87228,-5.16168 -8.88988,-5.99665 -16.99636,-8.18795 -23.60901,-6.38185 -4.3048,1.17575 -4.42235,1.13041 -7.47286,-2.88255 -1.7046,-2.2424 -3.03671,-4.28926 -2.96023,-4.54857 0.076,-0.25946 1.84483,-1.79828 3.92969,-3.41993 2.59058,-2.01503 3.96376,-2.64138 4.33746,-1.97843 0.30074,0.53352 0.93881,0.74907 1.41794,0.47899 0.47912,-0.27007 0.55908,-1.0446 0.17771,-1.72117 -0.43902,-0.77881 0.54936,-2.20083 2.69391,-3.87587 1.86303,-1.45515 4.28014,-3.39791 5.37136,-4.31722 l 1.98403,-1.67149 12.80716,15.33546 c 7.04395,8.43449 12.89957,15.95999 13.01251,16.72333 0.2628,1.77613 -1.14727,3.48828 -2.81739,3.42098 z m -25.05574,-31.40164 c -0.41941,-0.11698 -0.63397,0.64103 -0.47682,1.68455 0.22711,1.50802 0.38356,1.55168 0.76254,0.2128 0.26222,-0.92653 0.13367,-1.78031 -0.28574,-1.89733 z m -27.78941,55.21683 c -1.15276,-1.28941 -1.98017,-2.75934 -1.83893,-3.26634 0.3506,-1.25662 4.42224,0.69024 5.52132,2.64002 1.48443,2.63336 -1.4432,3.13139 -3.68265,0.62647 z M 486.39768,408.13203 c -1.98359,-0.55345 -3.24199,-2.53466 -2.04023,-3.21208 0.47912,-0.27008 0.62652,-0.92501 0.32754,-1.45539 -0.29897,-0.53038 -0.99044,-0.42411 -1.53661,0.23616 -0.67186,0.81225 -2.66703,0.21324 -6.16933,-1.85224 -2.84698,-1.67899 -7.17651,-3.66767 -9.62116,-4.41928 -4.47234,-1.37503 -12.13613,-1.26808 -14.83597,0.20697 -1.07701,0.58841 -2.25484,-0.26 -4.54695,-3.27526 -1.70138,-2.23819 -3.01217,-4.36063 -2.91287,-4.71657 0.28803,-1.03205 19.11491,-16.29391 19.84783,-16.08942 1.7167,0.47896 25.13745,30.03581 25.22791,31.83742 0.11404,2.27097 -1.41249,3.38916 -3.74016,2.73969 z m 1.93534,-4.30516 c -0.27008,-0.47913 -0.9062,-0.63712 -1.41358,-0.35114 -0.5074,0.28602 -0.4593,0.77547 0.1069,1.08767 0.56619,0.3122 1.2023,0.47022 1.41359,0.35113 0.21127,-0.1191 0.16313,-0.60856 -0.10691,-1.08766 z m 53.81914,-48.45574 c -2.85271,-2.10482 -6.99472,-4.72555 -9.20444,-5.82385 -2.20972,-1.09829 -4.22884,-2.37149 -4.48692,-2.82934 -0.25809,-0.45783 -0.84385,-0.62127 -1.3017,-0.36319 -0.45785,0.2581 -2.8079,0.30505 -5.22234,0.10435 -2.41445,-0.2007 -5.81273,0.11903 -7.55173,0.71051 -2.9592,1.00651 -3.35725,0.81575 -6.2115,-2.9766 -1.67732,-2.22862 -2.99792,-4.23751 -2.93467,-4.4642 0.23372,-0.83778 19.3812,-16.31807 19.97779,-16.15163 0.34024,0.0949 1.88518,1.84041 3.43323,3.87884 2.65183,3.49179 2.69162,3.73861 0.68797,4.26631 -1.5475,0.40756 -1.90151,0.95961 -1.29976,2.02711 0.59136,1.04909 1.21731,1.04809 2.1973,-0.003 0.75369,-0.80877 1.82333,-1.22071 2.37697,-0.91542 1.84211,1.01574 15.58281,18.14299 16.83978,20.99014 0.89712,2.03204 0.77671,3.15672 -0.43791,4.09007 -1.35372,1.04024 -2.67088,0.55276 -6.86207,-2.5396 z m -15.17231,-16.20602 c -0.74326,-0.61481 -1.59247,-0.68063 -1.88711,-0.14628 -0.31941,0.57928 0.16778,1.24021 1.20656,1.63688 2.13992,0.81715 2.50466,0.0183 0.68055,-1.4906 z m -55.92801,293.73795 c 0.0242,-0.6014 -0.51848,-1.1161 -1.20596,-1.14383 -1.73839,-0.0701 -3.54727,2.3255 -2.28256,3.02287 1.30188,0.71786 3.43007,-0.42845 3.48854,-1.879 z m -20.95932,10.58745 c 0.71587,-1.36252 0.62605,-1.46811 -0.64991,-0.76401 -0.81411,0.44972 -1.50189,1.3456 -1.52792,1.99164 -0.0599,1.48659 1.09331,0.83653 2.17783,-1.22763 z m 14.8092,-8.3479 c -0.27008,-0.47913 -1.07907,-0.53967 -1.79775,-0.13456 -0.71869,0.40512 -1.08572,1.1286 -0.81565,1.60772 0.27009,0.47912 1.07907,0.53966 1.79775,0.13454 0.71869,-0.40512 1.08572,-1.12858 0.81565,-1.6077 z m 15.0783,-11.9434 c -0.27007,-0.47912 -0.90619,-0.63711 -1.41358,-0.35113 -0.5074,0.28601 -0.4593,0.77547 0.1069,1.08767 0.56619,0.31221 1.2023,0.47023 1.41358,0.35114 0.21129,-0.1191 0.16313,-0.60857 -0.1069,-1.08768 z m 0.78373,-6.75543 c -0.40512,-0.71868 -1.12859,-1.08572 -1.60772,-0.81564 -0.47911,0.27008 -0.53966,1.07907 -0.13454,1.79775 0.40512,0.71868 1.12858,1.08572 1.60771,0.81564 0.47912,-0.27007 0.53967,-1.07907 0.13455,-1.79775 z m -119.44033,65.0683 c -0.4393,-0.77931 -1.12143,-0.79547 -1.74522,-0.0414 -0.56321,0.68091 -0.82671,1.58807 -0.58557,2.01593 0.24119,0.42785 1.02653,0.44647 1.74521,0.0413 0.71869,-0.40512 0.98217,-1.31229 0.58558,-2.01592 z m 147.39554,-83.69639 c -0.56619,-0.3122 -1.42145,-0.34667 -1.90057,-0.0766 -0.47911,0.27007 -0.40788,0.74649 0.15831,1.05869 0.5662,0.3122 1.42144,0.34667 1.90057,0.0766 0.47912,-0.27007 0.40789,-0.74649 -0.15831,-1.05869 z m 21.34941,-13.18253 c -0.54015,-0.95825 -1.48611,-1.45816 -2.10213,-1.1109 -0.61601,0.34724 -1.0276,0.79529 -0.91466,0.99565 0.11295,0.20039 0.31696,1.11853 0.45334,2.04033 0.17229,1.1645 0.75122,1.39234 1.89677,0.74659 1.06804,-0.60205 1.30286,-1.54309 0.66668,-2.67167 z m -5.40017,0.75285 c 0.0635,-1.57473 -4.64724,-4.70804 -5.50495,-3.6616 -0.37409,0.4564 -0.42439,1.29504 -0.11211,1.86352 0.31244,0.56852 0.44194,1.4856 0.28784,2.03795 -0.15411,0.55235 0.0144,1.52694 0.37452,2.16578 0.75916,1.34674 4.88419,-0.65609 4.9547,-2.40565 z m -54.06533,29.32385 c -0.27008,-0.47911 -0.88306,-0.65015 -1.36218,-0.3801 -0.47912,0.27009 -0.65016,0.88306 -0.38009,1.36218 0.27008,0.47912 0.88306,0.65016 1.36218,0.3801 0.47911,-0.27009 0.65015,-0.88307 0.3801,-1.36218 z m 40.07196,-22.58843 c -0.27008,-0.47912 -0.66392,-0.77368 -0.8752,-0.65458 -0.21128,0.11909 -0.40545,0.74512 -0.43153,1.39115 -0.026,0.64604 0.36782,0.9406 0.87521,0.65458 0.5074,-0.28601 0.70157,-0.91204 0.43152,-1.39115 z m 26.0784,-15.84825 c 0.026,-0.64604 -0.34468,-0.95364 -0.82379,-0.68356 -0.47912,0.27008 -0.89243,1.01963 -0.91847,1.66567 -0.026,0.64604 0.34468,0.95364 0.8238,0.68356 0.47912,-0.27008 0.89243,-1.01963 0.91846,-1.66567 z m 26.83856,-18.5726 c 0.67172,-1.27849 0.4542,-1.37215 -1.13688,-0.48952 -1.08195,0.60072 -1.74659,1.48354 -1.47651,1.96267 0.61525,1.09146 1.53974,0.57031 2.61339,-1.47315 z m -48.40319,26.13678 c -0.27007,-0.47913 -0.66392,-0.77369 -0.8752,-0.65459 -0.21128,0.11911 -0.40546,0.74513 -0.43153,1.39116 -0.026,0.64604 0.3678,0.9406 0.87521,0.65458 0.5074,-0.28602 0.70156,-0.91204 0.43152,-1.39115 z m 20.41606,-12.6564 c -0.27007,-0.47912 -0.90619,-0.63712 -1.41358,-0.35114 -0.50739,0.28602 -0.4593,0.77547 0.1069,1.08767 0.5662,0.31221 1.2023,0.47022 1.41359,0.35113 0.21128,-0.1191 0.16313,-0.60856 -0.10691,-1.08766 z m -179.07264,99.79473 c -0.27007,-0.47912 -0.88305,-0.65015 -1.36217,-0.3801 -0.47912,0.27009 -0.65015,0.88307 -0.3801,1.36219 0.27008,0.47912 0.88307,0.65015 1.36218,0.3801 0.47912,-0.27008 0.65015,-0.88306 0.3801,-1.36217 z m 209.08836,-119.4405 c -0.98661,-0.31166 -2.2337,-0.035 -2.77145,0.61506 -0.75563,0.91351 -0.51224,1.11644 1.07152,0.89337 3.16054,-0.44517 3.66046,-0.88875 1.69993,-1.50843 z m -34.69427,12.81258 c -1.78247,-1.14189 -2.2059,0.72669 -0.74555,3.29011 l 1.60873,2.82396 -0.0742,-2.82804 c -0.0408,-1.55542 -0.39586,-3.03412 -0.78905,-3.286 z m 59.47232,-30.36753 c -0.44112,-0.78254 -1.51654,-0.85239 -2.681,-0.17412 -1.89578,1.10423 -1.8841,1.14069 0.4675,1.45837 2.99522,0.40457 3.12353,0.33013 2.2135,-1.28425 z M 363.13915,660.29592 c -0.25414,-0.45085 -0.85408,-0.59875 -1.3332,-0.32868 -0.47912,0.27009 -0.52662,1.10221 -0.10557,1.84917 0.42107,0.74696 1.021,0.89485 1.3332,0.32867 0.31221,-0.5662 0.35968,-1.39833 0.10557,-1.84916 z M 562.06021,548.87423 c -0.1191,-0.21129 -0.74513,-0.40547 -1.39115,-0.43153 -0.64604,-0.026 -0.94061,0.36781 -0.65459,0.8752 0.28602,0.50741 0.91205,0.70158 1.39115,0.43153 0.47912,-0.27008 0.7737,-0.66393 0.65459,-0.8752 z m 21.77824,-12.27633 c -0.1191,-0.21129 -0.74512,-0.40546 -1.39115,-0.43153 -0.64604,-0.026 -0.9406,0.36781 -0.65458,0.8752 0.28602,0.5074 0.91204,0.70157 1.39115,0.43152 0.47913,-0.27008 0.77369,-0.66391 0.65459,-0.8752 z m 8.22024,-5.78167 c -0.1191,-0.21127 -0.74512,-0.40545 -1.39115,-0.43152 -0.64604,-0.026 -0.9406,0.3678 -0.65458,0.8752 0.28602,0.5074 0.91204,0.70157 1.39115,0.43153 0.47912,-0.27007 0.77368,-0.66392 0.65458,-0.87521 z m 20.75552,-14.35042 c 0.29287,-1.91491 0.24125,-1.97193 -0.40026,-0.44212 -0.40503,0.96598 -2.01378,2.6941 -3.57489,3.84033 l -2.8384,2.08404 3.23865,-1.64192 c 2.15185,-1.09091 3.35149,-2.37963 3.5749,-3.84033 z m -16.78535,9.17487 c -0.27008,-0.47913 -0.88306,-0.65015 -1.36217,-0.3801 -0.47912,0.27007 -0.65016,0.88305 -0.3801,1.36217 0.27008,0.47912 0.88307,0.65016 1.36217,0.3801 0.47913,-0.27008 0.65017,-0.88306 0.3801,-1.36218 z M 351.51052,660.03109 c -0.54016,-0.95825 -1.37412,-1.52129 -1.85323,-1.25122 -0.47913,0.27009 -0.42921,1.27507 0.11097,2.23332 0.54016,0.95824 1.37411,1.52128 1.85323,1.25121 0.47913,-0.27008 0.42921,-1.27507 -0.11097,-2.23331 z M 583.60847,528.04414 c -0.38287,-0.6792 -7.12921,1.14384 -8.32342,2.24921 -0.35484,0.32844 -1.37477,0.46484 -2.2665,0.30309 -1.84611,-0.33483 -4.31659,2.11594 -2.91307,2.88984 0.50685,0.27949 1.83365,-0.006 2.9484,-0.63436 1.11476,-0.62838 3.38388,-1.18965 5.0425,-1.24726 2.95889,-0.10277 6.25943,-2.23473 5.51209,-3.56052 z m 8.04824,-4.05037 c -0.008,-0.57504 -1.55402,-0.33855 -3.43455,0.52554 -2.9739,1.36649 -3.818,2.77194 -1.97387,3.2865 1.07294,0.29937 5.4238,-2.76726 5.40842,-3.81204 z m 35.94997,-19.71865 c -0.24151,-0.42843 -1.41912,-0.22654 -2.61693,0.44866 -2.83803,1.59978 -2.1224,2.86803 0.80801,1.43197 1.23641,-0.60592 2.05043,-1.45219 1.80892,-1.88063 z m 5.27873,-2.85416 c -0.27008,-0.47912 -0.66392,-0.77368 -0.87521,-0.65458 -0.21128,0.1191 -0.40545,0.74512 -0.43152,1.39115 -0.026,0.64604 0.36781,0.9406 0.8752,0.65458 0.50741,-0.28601 0.70157,-0.91204 0.43153,-1.39115 z M 357.77196,654.84738 c -0.5183,-0.91946 -2.40784,-0.36337 -2.45156,0.72149 -0.0265,0.65658 0.563,0.8493 1.31001,0.42815 0.74696,-0.42106 1.26067,-0.93843 1.14157,-1.14971 z m -11.21912,4.53453 c -0.27008,-0.47912 -0.85992,-0.6632 -1.31077,-0.40907 -0.45085,0.25415 -0.84101,0.99066 -0.86706,1.63669 -0.026,0.64605 0.5638,0.83014 1.31077,0.40907 0.74697,-0.42106 1.13714,-1.15758 0.86706,-1.63669 z m 0.24955,-3.87146 c -0.55088,-1.11004 -1.33621,-2.46656 -1.74509,-3.01454 -0.51537,-0.69064 0.16059,-1.29179 2.20327,-1.95944 4.05803,-1.32635 3.21161,-2.05233 -2.13372,-1.83009 l -4.48658,0.18654 1.66853,2.95999 c 0.92911,1.64825 1.34046,3.81918 0.92822,4.89875 -0.67225,1.7604 -0.55952,1.91354 1.2255,1.66493 3.13397,-0.43651 3.401,-0.76816 2.33989,-2.90616 z M 605.92753,508.58149 c -0.27008,-0.47913 -0.9062,-0.63712 -1.41358,-0.35114 -0.5074,0.28602 -0.45929,0.77547 0.10691,1.08767 0.56618,0.3122 1.2023,0.47022 1.41358,0.35113 0.21129,-0.1191 0.16313,-0.60856 -0.10691,-1.08766 z m 9.6793,-7.50282 c -1.02886,-0.65381 -1.76264,-1.57585 -1.63064,-2.04896 0.13201,-0.4731 -0.34798,-0.52874 -1.06669,-0.12361 -2.24211,1.26387 -1.86309,2.29242 1.25336,3.40113 3.42595,1.21882 4.22517,0.53884 1.44397,-1.22856 z m 26.86668,-15.96787 c -0.12934,-0.87414 0.41315,-1.9548 1.20554,-2.40147 1.18186,-0.6662 1.11351,-0.93704 -0.38034,-1.5075 -1.00158,-0.38244 -2.10213,-0.53693 -2.44568,-0.34328 -0.55457,0.31261 -0.49344,5.31148 0.0773,6.32405 0.5495,0.97481 1.75452,-0.64308 1.54314,-2.0718 z m -303.1703,159.82334 c -0.64153,-0.57657 -0.99177,0.59741 -0.88336,2.96126 l 0.17956,3.91655 0.88344,-2.96123 c 0.48587,-1.62868 0.40506,-3.39113 -0.17956,-3.91655 z M 647.18688,473.84437 c 0.61918,-1.17849 0.0101,-1.12295 -2.39217,0.2181 -1.77235,0.98989 -3.24414,2.32771 -3.27018,2.97375 -0.0611,1.515 4.55711,-1.08824 5.66235,-3.19185 z m 31.73579,-20.00577 c -0.37593,-1.12296 -1.06994,-2.05734 -1.54227,-2.07636 -0.47232,-0.019 -0.26092,1.24444 0.4698,2.80771 1.44105,3.08298 2.18058,2.57867 1.07247,-0.73135 z M 343.33411,641.45322 c -0.29189,-0.5178 -0.13824,-1.84892 0.34144,-2.95804 0.70229,-1.62386 0.61765,-1.87314 -0.43455,-1.28001 -2.17973,1.22871 -3.29936,4.95351 -1.84946,6.15284 1.39356,1.15272 2.85801,-0.29079 1.94257,-1.91479 z m 315.9376,-176.7169 c -0.27007,-0.47912 -1.07906,-0.53967 -1.79774,-0.13455 -0.71868,0.40512 -1.08572,1.12858 -0.81564,1.60771 0.27007,0.47912 1.07907,0.53967 1.79775,0.13455 0.71868,-0.40512 1.08572,-1.12859 0.81563,-1.60771 z M 336.45833,645.54708 c -0.25073,-0.4448 -0.87705,-0.29957 -1.39182,0.32278 -0.51478,0.62232 -1.5144,0.65303 -2.22139,0.0682 -1.72617,-1.42784 -2.8906,-0.64054 -1.96579,1.32912 0.53461,1.13862 1.49472,1.2345 3.39033,0.33853 1.4545,-0.68747 2.4394,-1.61386 2.18867,-2.05866 z M 645.52546,470.89702 c -0.10354,-0.18368 -1.08845,-0.0969 -2.18872,0.19289 -1.10025,0.28978 -1.58041,0.75848 -1.06702,1.04157 0.89655,0.49437 3.64322,-0.54708 3.25574,-1.23446 z m 39.71041,-24.16109 c 0.0242,-0.60141 -0.49313,-1.11511 -1.14971,-1.14157 -0.65658,-0.0265 -0.8493,0.56301 -0.42815,1.31002 0.86255,1.53017 1.51228,1.4608 1.57793,-0.16843 z m -355.3847,193.04661 c -0.69491,-0.98087 -1.77604,-0.10563 -1.51734,1.2284 0.13245,0.68298 0.62283,0.81979 1.08975,0.30404 0.46692,-0.51575 0.65933,-1.20535 0.42755,-1.53247 z M 680.76959,441.78042 c -0.1191,-0.21129 -0.74512,-0.40547 -1.39116,-0.43153 -0.64604,-0.026 -0.94061,0.36781 -0.65459,0.8752 0.28603,0.50741 0.91205,0.70158 1.39116,0.43153 0.47911,-0.27007 0.77369,-0.66392 0.65458,-0.87519 z m -350.26338,183.0254 c -0.0526,-2.40013 -0.89622,-2.41291 -2.17451,-0.0329 -0.42453,0.79042 -0.25685,1.72111 0.37265,2.06823 1.58804,0.87565 1.85892,0.5697 1.80186,-2.0353 z m -8.11456,-3.97707 c -1.20763,-0.33697 -3.05734,4.64366 -1.9511,5.25365 0.64949,0.35813 1.36926,-0.51216 1.85076,-2.23787 0.43336,-1.55315 0.47852,-2.91026 0.10034,-3.01578 z m -11.98283,-6.05371 c 1.47588,-1.78423 0.56498,-3.06549 -1.39421,-1.9611 -0.8784,0.49515 -1.26562,1.48828 -0.8605,2.20696 0.84227,1.49419 0.81274,1.4974 2.25471,-0.24586 z m -5.24587,-4.38167 c 0.45686,-0.86957 0.43894,-1.35997 -0.0405,-1.08997 -0.47912,0.27008 -1.24494,1.20251 -1.70181,2.07208 -0.45688,0.86957 -0.43894,1.35996 0.0405,1.08997 0.47911,-0.27008 1.24493,-1.20251 1.70181,-2.07208 z M 644.7219,398.68147 c -0.95579,0.25145 -2.52828,1.12743 -3.49444,1.9466 -0.96615,0.8192 -0.18414,0.61347 1.73779,-0.45718 1.92193,-1.07064 2.71242,-1.7409 1.75665,-1.48945 z m -6.5458,-5.98833 c -0.27009,-0.47913 -0.7465,-0.40789 -1.0587,0.1583 -0.31221,0.56619 -0.34668,1.42145 -0.0766,1.90056 0.27007,0.47912 0.74649,0.40789 1.05869,-0.15829 0.3122,-0.5662 0.34667,-1.42146 0.0766,-1.90057 z M 293.37111,579.29243 c -0.58792,-1.04299 -4.42,0.036 -4.46927,1.25839 -0.0216,0.53649 0.75308,0.76623 1.72156,0.51056 2.88996,-0.76303 3.20162,-0.96367 2.7477,-1.76892 z m -15.85514,-3.68979 c -0.76797,-1.3624 -4.3477,0.20492 -4.68239,2.0501 -0.26554,1.46404 0.16642,1.50959 2.39612,0.25271 1.49603,-0.84331 2.52485,-1.87958 2.28627,-2.30281 z m 2.67202,-8.42244 c 1.23845,-1.51656 1.15866,-1.58554 -1.11939,-0.96758 -2.96529,0.80437 -7.44025,-1.20027 -5.3321,-2.38862 0.72273,-0.40741 1.09309,-1.13275 0.82301,-1.61187 -0.27007,-0.47911 -1.44099,-0.33565 -2.60204,0.31883 -1.16104,0.65448 -3.91357,0.85037 -6.11673,0.43531 -4.52111,-0.85174 -5.05531,-0.45438 -2.3861,1.77486 1.29953,1.08534 2.56644,1.14137 4.27759,0.18916 1.82787,-1.01716 2.22807,-0.97526 1.61268,0.16879 -0.70048,1.30227 -0.43834,1.64846 1.81844,2.40118 1.45032,0.48372 3.20614,0.55866 3.90182,0.16651 0.76644,-0.43204 1.35754,-0.0867 1.50003,0.87634 0.25385,1.71567 1.4879,1.25143 3.62279,-1.36291 z m -0.74696,-3.92065 c -1.26652,-0.35336 -2.43013,-0.18593 -2.58584,0.37212 -0.15572,0.55803 0.49913,1.05426 1.45521,1.10268 2.87688,0.14575 3.59262,-0.78785 1.13063,-1.4748 z M 617.61815,365.38728 c -0.5662,-0.31221 -0.6143,-0.80166 -0.1069,-1.08768 0.50739,-0.28602 0.73839,-0.84671 0.51333,-1.24597 -0.84039,-1.49086 -2.64245,0.6173 -1.89375,2.21544 0.42894,0.9157 1.17074,1.4446 1.64836,1.17536 0.47762,-0.26923 0.40515,-0.74495 -0.16104,-1.05715 z M 262.46466,552.67085 c -1.03092,-0.28766 -1.69345,0.0227 -1.9408,0.90923 -0.24736,0.88648 0.28697,1.03558 1.56526,0.43672 1.46174,-0.68479 1.55443,-1.01702 0.37552,-1.34597 z m 4.29351,-3.28013 c 0.026,-0.64605 -0.3678,-0.9406 -0.8752,-0.65459 -0.5074,0.28602 -0.70157,0.91204 -0.43153,1.39116 0.27008,0.47912 0.66392,0.77368 0.87521,0.65459 0.21127,-0.1191 0.40545,-0.74513 0.43152,-1.39116 z m -3.41262,-8.09045 c -1.09101,0.30462 -2.69793,0.43225 -3.57092,0.28362 -1.07822,-0.18357 -1.42361,0.02 -1.07697,0.63499 0.61764,1.09569 2.57767,0.91274 4.9075,-0.45805 1.72409,-1.01434 1.72409,-1.01434 -0.2596,-0.46053 z m -6.56656,-3.50334 c 0.026,-0.64604 -0.34468,-0.95364 -0.8238,-0.68356 -0.47912,0.27008 -0.89243,1.01963 -0.91846,1.66567 -0.026,0.64604 0.34468,0.95364 0.8238,0.68356 0.47911,-0.27007 0.89243,-1.01962 0.91846,-1.66567 z m -2.42876,-3.2904 c -0.25414,-0.45085 -1.2941,-0.35067 -2.311,0.22251 -1.53863,0.86733 -1.54556,1.15808 -0.0412,1.73252 1.82711,0.6977 3.20298,-0.44583 2.35225,-1.95503 z m -0.51065,-4.01443 c -0.41939,-0.11707 -0.97144,0.54686 -1.22676,1.47531 -0.36901,1.34169 -0.2125,1.38535 0.76253,0.21279 0.67472,-0.81142 0.88362,-1.57105 0.4642,-1.68807 z m -4.77596,2.78172 c -0.8729,0.13154 -2.11817,-0.0297 -2.76727,-0.35835 -0.72798,-0.36856 -0.85603,-0.0105 -0.3342,0.93448 0.56837,1.02925 1.47649,1.14684 2.76727,0.35834 1.28382,-0.78417 1.39468,-1.09427 0.3342,-0.93447 z m 0.72966,-9.906 c 0.026,-0.64604 -0.36781,-0.9406 -0.87521,-0.65458 -0.50739,0.28602 -0.70157,0.91204 -0.43152,1.39115 0.27008,0.47913 0.66392,0.77368 0.8752,0.65458 0.21129,-0.1191 0.40546,-0.74512 0.43153,-1.39115 z m -20.3247,-8.56413 c -0.1191,-0.21129 -0.74512,-0.40546 -1.39115,-0.43153 -0.64604,-0.026 -0.9406,0.36781 -0.65458,0.87521 0.28602,0.5074 0.91204,0.70157 1.39115,0.43152 0.47912,-0.27008 0.77369,-0.66393 0.65458,-0.8752 z m 6.84552,-7.75944 c 0.54427,-1.01552 0.0832,-1.4718 -1.95187,-1.93173 -2.61437,-0.59085 -2.63633,-0.5607 -1.16841,1.60409 1.60176,2.36213 2.00709,2.40469 3.12028,0.32764 z m -8.32408,1.06357 c -0.27008,-0.47913 -0.9062,-0.63712 -1.41359,-0.35113 -0.5074,0.28601 -0.45929,0.77547 0.10691,1.08767 0.56619,0.31221 1.2023,0.47023 1.41358,0.35114 0.21128,-0.11911 0.16313,-0.60857 -0.1069,-1.08768 z m -5.28227,1.82966 c 0.026,-0.64604 -0.36781,-0.9406 -0.8752,-0.65458 -0.5074,0.28602 -0.70157,0.91204 -0.43153,1.39115 0.27009,0.47913 0.66393,0.77369 0.87521,0.65458 0.21129,-0.1191 0.40545,-0.74512 0.43152,-1.39115 z m 20.47155,-11.53975 c -0.27008,-0.47911 -0.9062,-0.63711 -1.41359,-0.35113 -0.50739,0.28602 -0.45928,0.77547 0.1069,1.08767 0.5662,0.31221 1.20231,0.47023 1.41359,0.35114 0.21128,-0.1191 0.16313,-0.60857 -0.1069,-1.08768 z m -18.84027,8.32433 c -0.56619,-0.31219 -1.42145,-0.34666 -1.90057,-0.0766 -0.47911,0.27008 -0.40788,0.74649 0.15831,1.0587 0.5662,0.3122 1.42144,0.34667 1.90057,0.0766 0.47912,-0.27007 0.40789,-0.74649 -0.15831,-1.0587 z m 14.20302,-11.34923 c 0.0238,-0.58932 -0.48748,-0.66048 -1.13609,-0.15811 -1.71096,1.32522 -1.9584,2.94964 -0.30755,2.01906 0.77025,-0.4342 1.41989,-1.27162 1.44364,-1.86095 z m -18.59058,8.65678 c -0.40512,-0.71868 -1.11629,-1.09265 -1.58037,-0.83105 -0.46408,0.2616 -0.28673,0.93644 0.39421,1.49969 0.68091,0.56321 1.39207,0.93719 1.58038,0.83105 0.18829,-0.10615 0.0109,-0.78101 -0.39422,-1.49969 z m 11.83931,-9.54362 c -0.27007,-0.47912 -0.66392,-0.77368 -0.8752,-0.65458 -0.21128,0.11909 -0.40546,0.74512 -0.43153,1.39115 -0.026,0.64605 0.3678,0.9406 0.87521,0.65459 0.50739,-0.28602 0.70156,-0.91204 0.43152,-1.39116 z m 4.32069,-4.96101 c -1.27137,-0.35472 -1.37272,0.009 -0.45606,1.63463 0.91663,1.62611 1.27988,1.72746 1.63462,0.45606 0.35471,-1.27137 0.0928,-1.73597 -1.17852,-2.09071 z m 10.09568,-11.09393 c 0.0236,-0.5858 -0.62598,-0.41767 -1.44354,0.37363 -1.73423,1.67852 -1.65768,2.41539 0.14534,1.39903 0.69041,-0.38918 1.27459,-1.18688 1.2982,-1.77266 z m 27.29852,-17.49085 c -0.62995,-0.74254 -1.93692,-1.08508 -2.90438,-0.7612 -1.50645,0.50433 -1.47185,0.77136 0.24102,1.85985 2.42119,1.53862 4.25796,0.78093 2.66336,-1.09865 z m 33.02746,-21.21351 c -0.27007,-0.47912 -0.88306,-0.65016 -1.36217,-0.3801 -0.47913,0.27009 -0.65017,0.88307 -0.3801,1.36218 0.27008,0.47912 0.88306,0.65016 1.36218,0.3801 0.47911,-0.27009 0.65015,-0.88307 0.3801,-1.36217 z m 24.27231,-25.16158 c -0.56619,-0.31219 -1.49293,-0.29846 -2.05942,0.0305 -0.61897,0.35924 -0.31843,0.64123 0.75273,0.70604 2.2832,0.13816 2.58477,-0.0318 1.30669,-0.73658 z m 26.45849,-17.21043 c -0.27009,-0.47912 -1.10221,-0.52662 -1.84917,-0.10556 -0.74696,0.42106 -0.89485,1.021 -0.32867,1.3332 0.5662,0.3122 1.39833,0.35967 1.84916,0.10556 0.45085,-0.25413 0.59875,-0.85407 0.32868,-1.3332 z m 61.40025,-43.74976 c 0.45355,-0.84303 0.36806,-1.66018 -0.18998,-1.81588 -0.55805,-0.15572 -1.30373,0.75316 -1.65715,2.01964 -0.68695,2.46198 0.48236,2.333 1.84713,-0.20376 z M 379.4139,374.5374 c 0.026,-0.64604 -0.3678,-0.9406 -0.87521,-0.65458 -0.50739,0.28602 -0.70156,0.91204 -0.43152,1.39115 0.27008,0.47912 0.66392,0.77368 0.87521,0.65458 0.21128,-0.11909 0.40545,-0.74512 0.43152,-1.39115 z m 6.4758,-6.19498 c -0.97745,-0.2727 -1.41218,-0.0954 -1.10448,0.45041 0.65544,1.16276 2.26638,1.61225 2.52003,0.70314 0.10805,-0.38707 -0.52895,-0.9062 -1.41555,-1.15355 z m 6.48017,-3.40412 c -0.56619,-0.31221 -1.39833,-0.35968 -1.84916,-0.10557 -0.45084,0.25414 -0.59874,0.85408 -0.32868,1.3332 0.27009,0.47911 1.10221,0.52662 1.84917,0.10557 0.74696,-0.42107 0.89486,-1.021 0.32867,-1.3332 z m 149.55687,-90.04441 c -0.27009,-0.47911 -0.66392,-0.77368 -0.87521,-0.65458 -0.21128,0.1191 -0.40545,0.74512 -0.43152,1.39115 -0.026,0.64604 0.3678,0.94061 0.8752,0.65459 0.50739,-0.28602 0.70157,-0.91205 0.43153,-1.39116 z m -133.5821,72.5638 c -0.77941,-1.38268 -5.82918,-0.0231 -6.34173,1.70735 -0.58065,1.96038 1.7711,2.45718 4.45908,0.94196 1.60062,-0.90226 2.30707,-1.8964 1.88265,-2.64931 z M 534.27406,275.064 c 0.32144,-0.26982 0.80083,-0.67707 1.06529,-0.90506 0.73369,-0.63253 -3.03991,-1.87371 -4.0189,-1.32182 -0.47171,0.26591 -0.34581,0.90686 0.27976,1.42431 0.62559,0.51748 0.95881,1.69685 0.73953,2.62138 -0.31243,1.31953 -0.21018,1.35736 0.47599,0.1761 0.48063,-0.82741 1.13689,-1.72512 1.45833,-1.9949 z m -82.66429,39.17842 c -0.49367,-0.87578 -0.43021,-2.35927 0.14101,-3.29664 0.57124,-0.93739 0.55065,-1.84048 -0.0457,-2.0069 -0.5964,-0.16637 -1.1131,0.41059 -1.14821,1.2822 -0.0351,0.8716 -0.64548,1.5613 -1.35635,1.53265 -0.79332,-0.032 -0.83005,0.33043 -0.0951,0.93836 0.65856,0.54474 0.9245,1.48529 0.59105,2.09007 -0.33349,0.60479 -0.15037,1.9085 0.40691,2.89713 0.845,1.49902 1.12873,1.49511 1.70864,-0.0235 0.38243,-1.00158 0.29148,-2.53757 -0.20219,-3.41334 z m 37.91405,-19.28907 c 0.25337,-0.90812 -0.31748,-0.71899 -1.71259,0.56742 -1.15098,1.06127 -3.10275,1.95172 -4.33728,1.97875 -2.55422,0.0559 -2.51361,0.7737 0.0934,1.65126 1.86737,0.62861 5.28111,-1.77702 5.95645,-4.19743 z m 42.42374,-31.65324 c -0.27009,-0.47913 -0.88307,-0.65016 -1.36218,-0.3801 -0.47912,0.27007 -0.65016,0.88305 -0.3801,1.36217 0.27007,0.47912 0.88305,0.65015 1.36217,0.3801 0.47912,-0.27009 0.65015,-0.88307 0.3801,-1.36218 z m -15.03266,-7.14354 c 0.59177,-0.71543 0.70474,-1.50547 0.25103,-1.75564 -1.04979,-0.57888 -3.93896,2.16252 -3.36053,3.18865 0.50625,0.89808 1.59713,0.39536 3.1095,-1.43301 z m 3.74677,-3.71367 c 0.026,-0.64604 -0.34467,-0.95364 -0.8238,-0.68356 -0.47911,0.27008 -0.89242,1.01963 -0.91846,1.66567 -0.026,0.64603 0.34468,0.95364 0.8238,0.68356 0.47913,-0.27008 0.89243,-1.01962 0.91846,-1.66567 z m 128.1442,236.49221 c -0.28602,-0.5074 0.009,-0.90123 0.65459,-0.8752 0.64604,0.026 1.27206,0.2202 1.39115,0.43153 0.1191,0.21128 -0.17547,0.60512 -0.65458,0.8752 -0.47913,0.27008 -1.10516,0.0759 -1.39116,-0.43153 z"
       id="path4025"
       inkscape:connector-curvature="0"
       inkscape:export-filename="/home/erika/DEV/p2pu/python-course/assets/img/free-stamp.png"
       inkscape:export-xdpi="30.281252"
       inkscape:export-ydpi="30.281252" />
  </g>
</svg>
